<svg width="208" height="125" viewBox="0 0 208 125" fill="none" xmlns="http://www.w3.org/2000/svg">
<g clip-path="url(#clip0_229_948)">
<path d="M79.059 33.3334C79.4568 33.333 79.8545 33.3325 80.2644 33.3321C80.6833 33.3334 81.1023 33.3347 81.534 33.3361C81.9516 33.3348 82.3693 33.3334 82.7996 33.3321C83.3969 33.3327 83.3969 33.3327 84.0063 33.3334C84.3738 33.3338 84.7413 33.3342 85.1199 33.3346C86.0101 33.3787 86.0101 33.3787 86.6954 33.7193C86.6954 33.9441 86.6954 34.1688 86.6954 34.4005C86.9004 34.4707 87.1054 34.541 87.3165 34.6133C88.3781 35.2766 88.6185 35.9801 89.0941 37.1253C89.2223 38.2776 89.2223 38.2776 89.2217 39.5501C89.2229 39.7835 89.2242 40.017 89.2255 40.2575C89.2282 41.0234 89.2236 41.789 89.2186 42.5549C89.2184 43.0901 89.2186 43.6252 89.2191 44.1604C89.2191 45.2796 89.2155 46.3986 89.2093 47.5178C89.2015 48.9501 89.2014 50.3824 89.2037 51.8148C89.2048 52.919 89.2025 54.0232 89.1992 55.1274C89.1979 55.6555 89.1975 56.1836 89.198 56.7117C89.1981 57.4502 89.1938 58.1885 89.1882 58.927C89.1867 59.3467 89.1851 59.7663 89.1834 60.1987C89.0955 61.2904 88.8692 62.0255 88.4088 63.0108C88.2392 63.5166 88.2392 63.5166 88.0661 64.0326C88.2266 64.3391 88.3871 64.6456 88.5524 64.9614C89.1884 66.2703 89.2125 67.1388 89.1945 68.5855C89.1931 68.8169 89.1916 69.0484 89.1901 69.2869C89.1844 70.0191 89.1715 70.7511 89.1584 71.4832C89.1532 71.9826 89.1485 72.482 89.1443 72.9813C89.133 74.1992 89.1153 75.417 89.0941 76.6348C88.5374 76.6532 87.9805 76.6664 87.4236 76.6774C87.1135 76.6853 86.8034 76.6932 86.4839 76.7013C85.6674 76.6348 85.6674 76.6348 84.9821 75.9536C84.8783 74.9437 84.8783 74.9437 84.8522 73.6639C84.8464 73.4388 84.8406 73.2138 84.8346 72.982C84.8164 72.2624 84.8026 71.5429 84.7893 70.8233C84.7743 70.1025 84.7583 69.3818 84.7404 68.661C84.7244 68.0079 84.7116 67.3547 84.6989 66.7014C84.7492 65.7695 84.7492 65.7695 84.2968 65.395C83.279 65.2826 82.2613 65.1702 81.2127 65.0544C81.2127 68.6511 81.2127 72.2479 81.2127 75.9536C80.2388 76.2763 79.6104 76.34 78.5999 76.3368C78.1904 76.3381 78.1904 76.3381 77.7727 76.3394C77.1007 76.2942 77.1007 76.2942 76.758 75.9536C76.7244 75.4071 76.7148 74.8591 76.7145 74.3115C76.7136 73.9562 76.7126 73.6009 76.7116 73.2347C76.7123 72.8416 76.713 72.4484 76.7137 72.0433C76.7131 71.6319 76.7125 71.2205 76.7119 70.7966C76.7106 69.665 76.7109 68.5335 76.712 67.4019C76.7129 66.2202 76.7121 65.0385 76.7115 63.8567C76.7109 61.8719 76.7117 59.887 76.7134 57.9021C76.7152 55.6043 76.7146 53.3064 76.7127 51.0085C76.7112 49.039 76.711 47.0694 76.7119 45.0999C76.7124 43.9221 76.7125 42.7443 76.7113 41.5665C76.7102 40.2542 76.7118 38.9418 76.7137 37.6295C76.713 37.2363 76.7123 36.8432 76.7116 36.4381C76.7126 36.0828 76.7135 35.7274 76.7145 35.3613C76.7147 35.0506 76.7148 34.7399 76.7149 34.4198C76.8042 32.9688 77.8225 33.3347 79.059 33.3334Z" fill="white"/>
<path d="M147.369 33.2936C147.688 33.2866 148.006 33.2796 148.335 33.2724C150.245 33.2617 152.241 33.2719 153.858 34.4006C155.004 35.8624 155.4 36.8064 155.39 38.6544C155.392 39.3026 155.392 39.3026 155.393 39.9638C155.387 40.4315 155.381 40.8992 155.375 41.3669C155.373 41.8522 155.372 42.3375 155.372 42.8228C155.369 43.8386 155.362 44.8543 155.351 45.87C155.338 47.1632 155.332 48.4563 155.328 49.7496C155.325 50.9929 155.318 52.2362 155.311 53.4795C155.31 53.7125 155.308 53.9454 155.307 54.1855C155.263 61.533 155.263 61.533 154.201 62.8194C153.862 63.0828 153.862 63.0828 153.516 63.3515C153.403 63.6887 153.29 64.0259 153.173 64.3733C153.399 64.3733 153.625 64.3733 153.858 64.3733C154.085 64.9353 154.311 65.4973 154.544 66.0763C154.77 66.0763 154.996 66.0763 155.229 66.0763C155.229 69.3359 155.229 72.5954 155.229 75.9537C154.098 75.9537 152.967 75.9537 151.802 75.9537C151.796 75.6478 151.789 75.3418 151.782 75.0266C151.755 73.8928 151.725 72.7592 151.694 71.6255C151.68 71.1346 151.669 70.6437 151.658 70.1527C151.642 69.4475 151.622 68.7425 151.602 68.0374C151.585 67.4007 151.585 67.4007 151.569 66.7511C151.564 65.6964 151.564 65.6964 150.774 65.0545C149.938 64.9718 149.938 64.9718 149.018 65.012C148.55 65.0212 148.55 65.0212 148.073 65.0306C147.834 65.0385 147.594 65.0464 147.348 65.0545C147.339 65.3829 147.33 65.7113 147.322 66.0496C147.289 67.264 147.255 68.4782 147.22 69.6925C147.205 70.2188 147.191 70.7451 147.177 71.2714C147.157 72.0264 147.136 72.7813 147.113 73.5363C147.105 73.8912 147.105 73.8912 147.096 74.2534C147.044 75.9149 147.044 75.9149 146.662 76.2943C146.142 76.3188 145.62 76.3229 145.099 76.3156C144.674 76.311 144.674 76.311 144.241 76.3063C143.913 76.3004 143.913 76.3004 143.578 76.2943C143.57 70.7491 143.564 65.2039 143.561 59.6587C143.559 57.0842 143.556 54.5096 143.552 51.9351C143.549 49.6919 143.547 47.4487 143.546 45.2055C143.546 44.017 143.545 42.8286 143.542 41.6401C143.539 40.3155 143.539 38.9909 143.539 37.6663C143.538 37.2694 143.537 36.8725 143.536 36.4636C143.536 36.1049 143.537 35.7462 143.537 35.3767C143.537 34.9062 143.537 34.9062 143.536 34.4262C143.641 32.6734 146.021 33.3009 147.369 33.2936Z" fill="white"/>
<path d="M61.7569 33.5424C63.3407 34.1133 64.1652 35.1222 65.1073 36.4441C65.4372 37.4279 65.4923 38.0411 65.4912 39.0629C65.4916 39.391 65.4921 39.7191 65.4926 40.0571C65.4907 40.5962 65.4907 40.5962 65.4889 41.1462C65.4889 41.5251 65.489 41.904 65.489 42.2943C65.4888 43.5493 65.4861 44.8044 65.4834 46.0594C65.4828 46.9285 65.4823 47.7975 65.4819 48.6666C65.4808 50.7221 65.4781 52.7775 65.4746 54.833C65.4708 57.1731 65.4689 59.5132 65.4672 61.8533C65.4636 66.6669 65.4576 71.4806 65.45 76.2942C64.886 76.3034 64.322 76.31 63.758 76.3155C63.444 76.3195 63.1299 76.3234 62.8063 76.3275C62.0233 76.2942 62.0233 76.2942 61.6806 75.9536C61.6444 75.4461 61.6318 74.9368 61.6287 74.428C61.6258 74.0984 61.623 73.7689 61.62 73.4293C61.6186 73.0648 61.6172 72.7003 61.6157 72.3248C61.6128 71.9433 61.61 71.5617 61.6071 71.1686C61.6011 70.3371 61.5959 69.5056 61.5914 68.6741C61.5842 67.3606 61.5749 66.0471 61.5651 64.7335C61.5429 61.708 61.5238 58.6825 61.5048 55.657C61.486 52.6652 61.4659 49.6733 61.4435 46.6815C61.4344 45.3831 61.4273 44.0848 61.4202 42.7865C61.4145 41.9955 61.4087 41.2045 61.4028 40.4136C61.4014 40.0491 61.4 39.6846 61.3985 39.309C61.3956 38.9795 61.3928 38.6499 61.3898 38.3104C61.3881 38.0223 61.3863 37.7342 61.3845 37.4374C61.4098 36.7817 61.4098 36.7817 60.9953 36.4441C60.4822 36.4108 59.9674 36.3999 59.4532 36.4015C59.1741 36.4007 58.8949 36.3998 58.6073 36.3989C57.9128 36.3676 57.9128 36.3676 57.5686 36.7847C57.5316 37.293 57.5183 37.803 57.5144 38.3127C57.5093 38.8077 57.5093 38.8077 57.5042 39.3128C57.5022 39.6778 57.5002 40.0429 57.4982 40.419C57.4931 40.9921 57.4931 40.9921 57.4879 41.5768C57.4771 42.8466 57.4686 44.1164 57.4601 45.3862C57.4531 46.2639 57.4459 47.1416 57.4386 48.0192C57.4216 50.0976 57.406 52.176 57.3913 54.2544C57.3744 56.62 57.3555 58.9857 57.3366 61.3513C57.2975 66.2187 57.2609 71.0862 57.2259 75.9536C56.2027 76.4621 55.2698 76.3343 54.1419 76.2942C53.9157 76.1818 53.6896 76.0694 53.4565 75.9536C53.4565 63.0279 53.4565 50.1021 53.4565 36.7847C53.6827 36.7847 53.9089 36.7847 54.1419 36.7847C54.1825 36.5827 54.2232 36.3808 54.265 36.1727C55.2908 32.6665 58.7675 32.9001 61.7569 33.5424Z" fill="white"/>
<path d="M175.653 33.7646C176.962 34.8223 177.421 35.8414 177.845 37.466C177.939 38.8244 177.925 40.1788 177.912 41.5399C177.911 41.9301 177.91 42.3203 177.909 42.7224C177.905 43.9647 177.897 45.207 177.888 46.4493C177.885 47.2932 177.882 48.1372 177.879 48.9812C177.871 51.0465 177.86 53.1118 177.845 55.1771C175.77 55.2437 175.77 55.2437 175.104 55.1771C174.245 54.3239 174.33 54.0455 174.32 52.8661C174.316 52.5274 174.311 52.1887 174.306 51.8398C174.304 51.4729 174.303 51.106 174.301 50.7281C174.296 50.3526 174.291 49.9772 174.286 49.5904C174.264 47.979 174.251 46.3675 174.236 44.7559C174.225 43.5819 174.209 42.4079 174.194 41.2339C174.192 40.867 174.19 40.5001 174.188 40.1222C174.184 39.7835 174.179 39.4448 174.174 39.0958C174.172 38.7968 174.169 38.4979 174.167 38.1898C174.142 37.3926 174.142 37.3926 173.391 36.7848C172.469 36.6928 171.577 36.755 170.649 36.7848C169.927 37.9611 169.88 38.8838 169.885 40.2493C169.885 40.663 169.886 41.0767 169.886 41.5029C169.89 41.941 169.895 42.3791 169.9 42.8304C169.903 43.2764 169.906 43.7224 169.909 44.1818C169.767 50.8988 169.767 50.8988 171.696 57.2234C172.02 57.9019 172.02 57.9019 172.255 59.1366C172.546 60.3754 173.049 61.1696 173.819 62.1807C175.204 64.0238 175.961 65.9742 176.761 68.1106C177.058 69.0865 177.058 69.0865 177.503 69.4823C177.532 69.9645 177.539 70.4481 177.536 70.9312C177.535 71.2221 177.534 71.513 177.533 71.8126C177.528 72.2713 177.528 72.2713 177.524 72.7393C177.522 73.0464 177.521 73.3535 177.519 73.67C177.515 74.4312 177.51 75.1925 177.503 75.9537C177.071 75.9607 176.64 75.9678 176.196 75.975C175.954 75.979 175.711 75.9829 175.461 75.987C174.761 75.9537 174.761 75.9537 173.733 75.6131C173.72 75.3251 173.708 75.0371 173.694 74.7403C173.56 72.4425 173.317 70.5512 172.363 68.4605C172.11 67.8513 171.86 67.241 171.613 66.6298C171.495 66.3462 171.377 66.0625 171.256 65.7703C170.992 65.0545 170.992 65.0545 170.992 64.3733C170.653 64.2609 170.313 64.1485 169.964 64.0327C169.396 63.2028 169.234 62.4658 169.022 61.4782C168.646 59.8515 167.858 58.4971 167.03 57.0558C165.497 53.3301 165.714 49.1696 165.706 45.2096C165.702 44.1901 165.685 43.1713 165.668 42.1519C165.665 41.4964 165.662 40.8409 165.66 40.1855C165.654 39.8845 165.647 39.5836 165.64 39.2736C165.655 37.1871 166.12 35.6235 167.565 34.06C169.639 32.7839 173.419 32.7977 175.653 33.7646Z" fill="white"/>
<path d="M37.0685 33.1419C39.119 33.5125 40.4618 34.5511 41.8057 36.1035C42.1753 37.2057 42.194 38.0097 42.1981 39.169C42.2003 39.5895 42.2025 40.01 42.2047 40.4433C42.2053 40.9024 42.2056 41.3615 42.2059 41.8205C42.207 42.2909 42.2081 42.7613 42.2093 43.2316C42.2114 44.2168 42.212 45.202 42.2118 46.1872C42.2118 47.4513 42.2165 48.7154 42.2224 49.9795C42.2262 50.9504 42.2269 51.9213 42.2267 52.8923C42.2271 53.3585 42.2286 53.8247 42.2313 54.2909C42.2346 54.9416 42.2332 55.5922 42.2316 56.2429C42.2321 56.6134 42.2325 56.984 42.233 57.3658C42.1483 58.2425 42.1483 58.2425 41.463 58.9237C40.5328 59.0353 39.6632 58.9683 38.7216 58.9237C38.1131 58.3188 38.3267 57.4358 38.3195 56.6168C38.3149 56.1962 38.3102 55.7756 38.3055 55.3423C38.3037 55.1162 38.302 54.8901 38.3002 54.6571C38.2946 53.9515 38.2867 53.246 38.278 52.5404C38.2537 50.5339 38.2331 48.5274 38.2156 46.5208C38.2047 45.2947 38.1906 44.0687 38.1744 42.8427C38.1689 42.3746 38.1647 41.9065 38.1617 41.4384C38.1576 40.7843 38.149 40.1303 38.1401 39.4764C38.1366 39.1037 38.1331 38.7311 38.1294 38.3472C38.1245 37.4107 38.1245 37.4107 37.351 36.7847C36.6958 36.6893 36.6958 36.6893 35.9803 36.7209C35.6198 36.7242 35.6198 36.7242 35.2521 36.7275C34.5786 36.7483 34.5786 36.7483 33.9243 37.1253C33.9228 37.3251 33.9214 37.5249 33.9199 37.7308C33.8845 42.5857 33.8473 47.4406 33.808 52.2954C33.789 54.6432 33.7707 56.991 33.7539 59.3387C33.7376 61.6023 33.7196 63.8659 33.7005 66.1295C33.6935 66.9953 33.6871 67.861 33.6813 68.7268C33.6731 69.9348 33.6628 71.1427 33.652 72.3507C33.65 72.7125 33.648 73.0744 33.646 73.4472C33.641 73.938 33.641 73.938 33.6358 74.4386C33.6325 74.8677 33.6325 74.8677 33.6291 75.3054C33.5816 75.9537 33.5816 75.9537 33.2389 76.2943C32.7183 76.3187 32.1966 76.3229 31.6755 76.3156C31.2508 76.3109 31.2508 76.3109 30.8175 76.3062C30.4895 76.3003 30.4895 76.3003 30.1549 76.2943C30.1229 71.2226 30.0987 66.1509 30.0839 61.0792C30.0768 58.7242 30.0672 56.3692 30.0515 54.0143C30.0364 51.7418 30.0284 49.4694 30.0249 47.1969C30.0223 46.3297 30.0174 45.4625 30.01 44.5953C30.0001 43.3811 29.9987 42.1672 29.9993 40.9529C29.9944 40.594 29.9895 40.2351 29.9844 39.8653C29.9958 37.856 30.1598 36.6695 31.5256 35.0817C31.7858 34.7643 32.0459 34.4469 32.314 34.1198C33.8216 32.9119 35.1974 33.0873 37.0685 33.1419Z" fill="white"/>
<path d="M200.804 91.9619C201.256 91.9619 201.708 91.9619 202.174 91.9619C202.182 95.3755 202.188 98.7891 202.192 102.203C202.194 103.788 202.196 105.372 202.2 106.957C202.204 108.486 202.206 110.014 202.207 111.542C202.208 112.126 202.209 112.711 202.211 113.295C202.213 114.111 202.214 114.926 202.213 115.742C202.215 115.986 202.216 116.23 202.217 116.481C202.214 118.149 202.214 118.149 201.832 118.529C201.008 118.561 200.194 118.571 199.371 118.567C198.985 118.567 198.985 118.567 198.591 118.567C197.736 118.567 196.881 118.565 196.027 118.562C195.435 118.561 194.844 118.561 194.253 118.56C192.694 118.559 191.136 118.556 189.577 118.552C187.988 118.549 186.398 118.547 184.809 118.545C181.688 118.542 178.567 118.536 175.446 118.529C175.7 116.858 176.142 116.477 177.502 115.463C177.721 115.116 177.939 114.768 178.164 114.41C178.778 113.668 179.101 113.444 180.057 113.24C181.137 113.183 182.2 113.19 183.281 113.22C183.674 113.223 184.067 113.226 184.472 113.229C185.726 113.24 186.979 113.266 188.232 113.292C189.083 113.302 189.933 113.312 190.784 113.32C192.868 113.342 194.951 113.377 197.034 113.42C197.028 113.209 197.021 112.998 197.014 112.781C196.945 110.576 196.899 108.372 196.865 106.167C196.85 105.345 196.829 104.523 196.802 103.702C196.764 102.517 196.747 101.333 196.733 100.148C196.717 99.7841 196.701 99.42 196.685 99.0448C196.684 97.4553 196.735 96.4434 197.717 95.149C198.552 94.3241 198.552 94.3241 199.387 93.6099C200.185 92.9831 200.185 92.9831 200.804 91.9619Z" fill="white"/>
<path d="M103.829 33.038C104.733 33.9366 104.667 34.4754 104.794 35.7309C104.836 36.1434 104.879 36.556 104.922 36.981C104.964 37.422 105.006 37.863 105.049 38.3173C105.094 38.7631 105.138 39.2089 105.184 39.6682C105.453 42.4287 105.677 45.187 105.785 47.9585C105.826 48.9726 105.902 49.7786 106.227 50.7492C106.388 51.7946 106.486 52.8475 106.591 53.8997C106.622 54.2019 106.653 54.5041 106.684 54.8154C106.933 57.4428 106.985 60.0328 106.913 62.6702C107.139 62.6702 107.365 62.6702 107.598 62.6702C107.643 63.0969 107.689 63.5237 107.736 63.9634C107.797 64.5257 107.858 65.0881 107.919 65.6504C107.949 65.9314 107.979 66.2124 108.01 66.5019C108.039 66.7741 108.069 67.0464 108.1 67.3268C108.127 67.5765 108.154 67.8262 108.181 68.0835C108.269 68.8012 108.269 68.8012 108.464 69.4868C108.636 70.204 108.665 70.8269 108.659 71.563C108.658 71.8199 108.657 72.0767 108.656 72.3413C108.653 72.6061 108.65 72.8708 108.647 73.1436C108.646 73.4136 108.644 73.6837 108.643 73.9619C108.639 74.6258 108.632 75.2897 108.626 75.9536C107.947 75.9536 107.269 75.9536 106.57 75.9536C106.457 74.2676 106.344 72.5816 106.227 70.8446C106.001 70.8446 105.775 70.8446 105.542 70.8446C105.525 70.474 105.508 70.1034 105.491 69.7217C105.36 67.0774 105.154 64.5101 104.677 61.9012C104.089 58.5394 104.133 55.17 104.171 51.771C103.945 51.771 103.719 51.771 103.486 51.771C103.486 59.8636 103.486 67.9563 103.486 76.2942C102.468 76.1818 101.45 76.0694 100.402 75.9536C100.402 61.9038 100.402 47.8541 100.402 33.3786C101.608 32.9789 102.563 32.9694 103.829 33.038Z" fill="white"/>
<path d="M6.85352 11.2397C15.2215 11.2397 23.5895 11.2397 32.211 11.2397C31.3418 12.9677 30.385 14.2117 28.7843 15.3269C27.4384 15.6999 26.1594 15.693 24.7687 15.6675C24.3923 15.6712 24.0158 15.6749 23.628 15.6788C22.4338 15.6876 21.2405 15.6779 20.0463 15.6675C19.2333 15.6703 18.4204 15.6743 17.6074 15.6795C15.6217 15.6897 13.6365 15.6845 11.6509 15.6675C11.655 15.8726 11.659 16.0776 11.6632 16.2889C11.7022 18.4387 11.7144 20.5875 11.7115 22.7377C11.7139 23.5382 11.7229 24.3386 11.739 25.1389C11.8791 32.5171 11.8791 32.5171 9.96475 34.6345C8.00269 36.4441 8.00269 36.4441 6.85352 36.4441C6.85352 28.1267 6.85352 19.8092 6.85352 11.2397Z" fill="white"/>
<path d="M125.564 33.3015C126.076 33.3069 126.076 33.3069 126.597 33.3123C127.151 33.3156 127.151 33.3156 127.715 33.319C128.102 33.3247 128.488 33.3304 128.886 33.3363C129.47 33.3409 129.47 33.3409 130.066 33.3456C131.029 33.3536 131.992 33.3649 132.955 33.3788C132.989 35.4743 132.989 35.4743 132.955 36.1036C131.733 37.3185 129.54 36.6624 127.815 36.7848C127.815 44.8775 127.815 52.9701 127.815 61.308C129.059 61.4204 130.303 61.5328 131.585 61.6486C131.927 61.9892 131.927 61.9892 131.97 63.1813C131.927 64.3734 131.927 64.3734 131.585 64.714C131.009 64.7933 130.43 64.8545 129.85 64.9056C129.535 64.9341 129.22 64.9627 128.896 64.9921C128.652 65.0127 128.409 65.0333 128.158 65.0546C128.15 65.383 128.141 65.7114 128.132 66.0497C128.1 67.264 128.066 68.4783 128.031 69.6925C128.016 70.2188 128.001 70.7451 127.988 71.2715C127.968 72.0265 127.946 72.7814 127.924 73.5363C127.915 73.8913 127.915 73.8913 127.907 74.2534C127.854 75.915 127.854 75.915 127.473 76.2944C126.96 76.3277 126.445 76.3386 125.931 76.337C125.652 76.3378 125.372 76.3387 125.085 76.3396C124.389 76.2944 124.389 76.2944 124.046 75.9538C124.012 75.4124 124.001 74.8694 124 74.327C123.999 73.975 123.997 73.623 123.996 73.2603C123.996 72.8709 123.996 72.4815 123.996 72.0802C123.995 71.6726 123.994 71.2651 123.993 70.8451C123.99 69.7241 123.989 68.6031 123.989 67.4821C123.988 66.5476 123.987 65.6131 123.986 64.6786C123.983 62.4746 123.982 60.2706 123.983 58.0666C123.983 55.79 123.979 53.5134 123.974 51.2368C123.969 49.2849 123.967 47.333 123.968 45.3811C123.968 44.2141 123.967 43.0472 123.963 41.8802C123.959 40.5794 123.961 39.2785 123.963 37.9777C123.961 37.5889 123.959 37.2002 123.957 36.7996C123.958 36.4467 123.96 36.0938 123.961 35.7301C123.961 35.4223 123.961 35.1144 123.961 34.7972C124.089 33.6856 124.461 33.404 125.564 33.3015Z" fill="white"/>
<path d="M31.0129 80.6887C31.5317 80.6946 31.5317 80.6946 32.061 80.7007C32.4078 80.7038 32.7545 80.7068 33.1118 80.71C33.514 80.7159 33.514 80.7159 33.9243 80.722C33.9329 81.0916 33.9415 81.4613 33.9503 81.8422C33.9825 83.2088 34.0168 84.5754 34.0519 85.942C34.0667 86.5344 34.081 87.1268 34.0947 87.7192C34.1144 88.5688 34.1363 89.4185 34.1585 90.2681C34.1643 90.5345 34.17 90.801 34.1759 91.0755C34.0978 92.3019 34.0978 92.3019 34.6096 93.3242C35.9909 93.4347 35.9909 93.4347 37.351 93.3242C38.1748 92.0958 38.1548 91.1658 38.1782 89.7439C38.1848 89.4958 38.1915 89.2478 38.1983 88.9923C38.2188 88.2011 38.2347 87.4099 38.2505 86.6186C38.2636 86.0818 38.2769 85.5449 38.2906 85.0081C38.3235 83.693 38.3523 82.3778 38.379 81.0626C39.5098 81.0626 40.6406 81.0626 41.8057 81.0626C41.8311 82.8261 41.8498 84.5896 41.8621 86.3533C41.8673 86.9529 41.8743 87.5525 41.8832 88.1521C41.8957 89.0153 41.9015 89.8784 41.9061 90.7417C41.9114 91.0086 41.9167 91.2755 41.9221 91.5504C41.9227 93.4618 41.4966 94.4908 40.3065 95.9425C38.935 97.0436 37.5248 97.1639 35.809 97.1559C35.4309 97.1577 35.0527 97.1594 34.6632 97.1612C33.5585 97.0688 32.834 96.9274 31.8683 96.3896C31.3382 95.6645 31.3382 95.6645 30.9259 94.8356C30.4653 93.8417 30.4653 93.8417 29.8123 92.9836C29.7777 92.1042 29.7644 91.2341 29.7668 90.3546C29.7664 90.0913 29.7661 89.8279 29.7658 89.5567C29.7655 88.9989 29.7662 88.4411 29.7676 87.8834C29.7694 87.0267 29.7676 86.1701 29.7654 85.3134C29.7656 84.7728 29.7661 84.2322 29.7668 83.6916C29.7661 83.4337 29.7654 83.1757 29.7646 82.91C29.7745 80.7367 29.7745 80.7367 31.0129 80.6887Z" fill="white"/>
<path d="M149.018 36.3804C149.321 36.3755 149.624 36.3707 149.936 36.3657C150.774 36.4442 150.774 36.4442 151.802 37.1254C151.935 38.1162 151.935 38.1162 151.941 39.401C151.943 39.6348 151.946 39.8686 151.948 40.1094C151.954 40.8844 151.953 41.659 151.951 42.434C151.952 42.9719 151.954 43.5099 151.956 44.0478C151.959 45.1765 151.959 46.3052 151.955 47.4339C151.951 48.8801 151.958 50.3261 151.968 51.7723C151.974 52.8839 151.974 53.9953 151.972 55.1068C151.972 55.64 151.974 56.1731 151.979 56.7062C151.984 57.4524 151.98 58.1981 151.974 58.9442C151.974 59.581 151.974 59.581 151.974 60.2307C151.771 61.5017 151.453 61.9051 150.432 62.6704C149.635 62.8154 149.635 62.8154 148.825 62.7768C148.421 62.7643 148.421 62.7643 148.008 62.7515C147.348 62.6704 147.348 62.6704 147.005 62.3298C146.971 61.5337 146.958 60.7478 146.961 59.9516C146.96 59.7029 146.959 59.4543 146.959 59.1981C146.957 58.3722 146.958 57.5464 146.959 56.7205C146.959 56.1491 146.959 55.5777 146.958 55.0063C146.958 53.8071 146.959 52.608 146.96 51.4088C146.962 49.8682 146.961 48.3277 146.959 46.7871C146.958 45.6067 146.958 44.4263 146.959 43.2459C146.959 42.6776 146.959 42.1094 146.958 41.5412C146.957 40.7485 146.959 39.9558 146.961 39.163C146.96 38.9259 146.959 38.6888 146.959 38.4445C146.967 36.5139 147.1 36.3942 149.018 36.3804Z" fill="white"/>
<path d="M168.936 80.7222C169.924 81.7047 169.719 82.4322 169.739 83.8062C169.744 84.0439 169.749 84.2816 169.754 84.5266C169.77 85.2878 169.782 86.049 169.792 86.8104C169.806 87.8101 169.825 88.8096 169.846 89.8092C169.852 90.2544 169.859 90.6995 169.865 91.1582C169.955 92.2055 170.091 92.7901 170.649 93.6649C171.441 93.6649 172.232 93.6649 173.048 93.6649C173.833 92.4205 173.834 91.3327 173.863 89.8838C173.869 89.6529 173.875 89.4221 173.881 89.1843C173.899 88.4498 173.913 87.7153 173.926 86.9807C173.941 86.2437 173.957 85.5067 173.975 84.7697C173.991 84.1028 174.004 83.4359 174.016 82.7689C174.076 81.744 174.076 81.744 174.418 81.0628C174.925 81.0536 175.432 81.047 175.939 81.0415C176.221 81.0375 176.503 81.0336 176.794 81.0295C177.502 81.0628 177.502 81.0628 177.845 81.4034C177.937 82.9003 177.938 84.3992 177.946 85.8986C177.952 86.6478 177.967 87.3964 177.982 88.1455C178.012 90.8528 177.918 93.3186 176.474 95.7085C175.098 97.0764 173.957 97.4611 172.041 97.4754C171.748 97.4802 171.455 97.4851 171.154 97.49C170.239 97.4053 169.708 97.2153 168.936 96.7303C168.47 96.1696 168.013 95.6019 167.565 95.0273C167.226 94.8025 166.887 94.5777 166.537 94.3461C165.838 92.7862 165.759 91.3251 165.785 89.6443C165.786 89.3977 165.787 89.1511 165.788 88.897C165.791 88.1163 165.8 87.3356 165.809 86.5549C165.812 86.0227 165.815 85.4906 165.818 84.9584C165.826 83.6598 165.838 82.3613 165.852 81.0628C166.884 80.5496 167.799 80.6616 168.936 80.7222Z" fill="white"/>
<path d="M55.8858 80.6436C56.5403 80.7221 56.5403 80.7221 57.2257 81.4033C57.324 82.4595 57.324 82.4595 57.3435 83.8061C57.3485 84.0438 57.3535 84.2815 57.3586 84.5264C57.3746 85.2877 57.3863 86.0489 57.397 86.8103C57.4111 87.81 57.4295 88.8095 57.4505 89.8091C57.4569 90.2543 57.4633 90.6994 57.4699 91.1581C57.5601 92.207 57.6545 92.8092 58.2537 93.6648C59.1713 93.9505 60.0266 93.9433 60.995 94.0054C61.4134 92.7578 61.4103 91.5886 61.4341 90.2881C61.4404 90.0258 61.4467 89.7634 61.4532 89.4931C61.4801 88.3706 61.5034 87.248 61.5269 86.1254C61.5446 85.3061 61.5642 84.4869 61.584 83.6677C61.5886 83.4119 61.5933 83.1561 61.5981 82.8926C61.6417 81.1011 61.6417 81.1011 62.023 80.7221C62.5361 80.6887 63.0508 80.6779 63.565 80.6795C63.8442 80.6786 64.1234 80.6777 64.411 80.6768C65.107 80.7221 65.107 80.7221 65.4497 81.0627C65.5335 82.5659 65.5281 84.0713 65.532 85.5766C65.5353 86.3294 65.5459 87.082 65.5568 87.8347C65.6023 93.7317 65.6023 93.7317 63.924 95.5734C62.3018 96.9719 61.221 97.174 59.1438 97.1413C57.216 96.9886 55.97 96.2738 54.6985 94.8782C53.3601 93.2883 53.4049 91.7324 53.4108 89.7227C53.4105 89.4759 53.4101 89.2292 53.4098 88.975C53.4096 88.4554 53.4102 87.9358 53.4116 87.4162C53.4135 86.6179 53.4116 85.8197 53.4095 85.0215C53.4097 84.5165 53.4101 84.0116 53.4108 83.5067C53.4101 83.2669 53.4094 83.0271 53.4087 82.78C53.4195 80.5796 53.6907 80.6871 55.8858 80.6436Z" fill="white"/>
<path d="M111.582 33.3362C111.85 33.3502 112.119 33.3643 112.396 33.3788C112.404 38.924 112.41 44.4692 112.413 50.0144C112.415 52.5889 112.418 55.1635 112.421 57.738C112.425 59.9812 112.427 62.2244 112.428 64.4676C112.428 65.6561 112.429 66.8445 112.432 68.033C112.435 69.3576 112.435 70.6822 112.434 72.0068C112.436 72.4037 112.437 72.8005 112.438 73.2095C112.438 73.5682 112.437 73.9269 112.437 74.2964C112.437 74.6101 112.437 74.9237 112.438 75.2469C112.396 75.9537 112.396 75.9537 112.053 76.2943C111.368 76.3082 110.682 76.3088 109.997 76.2943C109.981 70.7994 109.969 65.3045 109.961 59.8096C109.958 57.2583 109.953 54.7071 109.945 52.1558C109.938 49.9327 109.934 47.7096 109.932 45.4865C109.932 44.3088 109.929 43.1312 109.924 41.9536C109.919 40.6405 109.919 39.3274 109.919 38.0143C109.917 37.6218 109.914 37.2293 109.912 36.825C109.913 36.4687 109.914 36.1124 109.914 35.7453C109.914 35.4344 109.913 35.1236 109.913 34.8034C110.045 33.6393 110.43 33.3907 111.582 33.3362Z" fill="white"/>
<path d="M107.598 80.7222C109.294 80.7222 110.991 80.7222 112.738 80.7222C112.738 85.8925 112.738 91.0628 112.738 96.3897C109.311 96.3897 109.311 96.3897 108.283 95.7085C107.823 93.5961 107.826 91.4012 107.733 89.2465C107.658 87.6329 107.492 86.0686 107.255 84.4688C107.227 83.859 107.211 83.2484 107.213 82.638C107.212 82.3474 107.211 82.0567 107.21 81.7573C107.255 81.0628 107.255 81.0628 107.598 80.7222Z" fill="white"/>
<path d="M125.097 80.6887C125.52 80.6946 125.52 80.6946 125.952 80.7007C126.235 80.7038 126.519 80.7068 126.81 80.71C127.029 80.714 127.248 80.7179 127.473 80.722C127.998 81.7662 127.857 82.8579 127.849 84.0029C127.848 84.259 127.848 84.5151 127.847 84.7789C127.846 85.5979 127.841 86.4169 127.837 87.2359C127.835 87.7908 127.834 88.3456 127.832 88.9004C127.828 90.2614 127.823 91.6225 127.816 92.9836C128.329 92.9776 128.329 92.9776 128.853 92.9716C129.295 92.9685 129.737 92.9654 130.193 92.9623C130.634 92.9583 131.075 92.9544 131.53 92.9503C132.613 92.9836 132.613 92.9836 132.956 93.3242C133.001 93.9415 133.001 93.9415 132.998 94.6866C133 95.0554 133 95.0554 133.001 95.4316C132.956 96.049 132.956 96.049 132.613 96.3896C132.007 96.4234 131.399 96.4341 130.792 96.4348C130.424 96.4352 130.056 96.4357 129.676 96.4361C129.288 96.4348 128.9 96.4335 128.501 96.4321C128.113 96.4334 127.725 96.4348 127.326 96.4361C126.957 96.4357 126.589 96.4352 126.209 96.4348C125.869 96.4344 125.528 96.434 125.177 96.4336C124.389 96.3896 124.389 96.3896 124.046 96.049C124.013 95.5803 124.002 95.1099 124.002 94.64C124.001 94.3411 124 94.0422 123.999 93.7342C123.999 93.4092 124 93.0842 124.001 92.7494C124 92.4181 124 92.0867 124 91.7453C123.999 91.0432 124 90.3412 124.001 89.6391C124.003 88.5604 124.001 87.4818 123.999 86.4031C124 85.7228 124 85.0425 124.001 84.3621C124 84.0372 123.999 83.7122 123.999 83.3773C124 83.0784 124.001 82.7795 124.002 82.4715C124.002 82.2071 124.002 81.9427 124.003 81.6702C124.066 80.78 124.202 80.7307 125.097 80.6887Z" fill="white"/>
<path d="M151.802 80.3813C153.046 80.3813 154.29 80.3813 155.572 80.3813C155.964 81.1605 155.962 81.6072 155.97 82.4735C155.973 82.7645 155.976 83.0554 155.98 83.3552C155.981 83.6699 155.983 83.9846 155.984 84.3089C155.986 84.6314 155.988 84.9539 155.99 85.2862C155.993 85.9687 155.995 86.6513 155.997 87.3339C156 88.3812 156.011 89.4283 156.022 90.4756C156.024 91.1377 156.026 91.7999 156.027 92.462C156.031 92.7767 156.035 93.0914 156.04 93.4156C156.039 93.7066 156.038 93.9976 156.037 94.2974C156.038 94.554 156.039 94.8106 156.04 95.075C155.999 95.284 155.957 95.493 155.914 95.7083C154.828 96.428 154.545 96.4755 153.302 96.4534C153.029 96.4512 152.756 96.449 152.474 96.4467C151.802 96.3895 151.802 96.3895 151.46 96.0489C151.426 95.582 151.416 95.1134 151.415 94.6454C151.414 94.3475 151.413 94.0497 151.412 93.7429C151.413 93.257 151.413 93.257 151.414 92.7613C151.414 92.4308 151.414 92.1003 151.413 91.7597C151.413 91.0591 151.414 90.3584 151.415 89.6578C151.417 88.5828 151.415 87.5079 151.413 86.433C151.413 85.7538 151.414 85.0746 151.414 84.3954C151.414 84.0721 151.413 83.7489 151.412 83.4159C151.414 82.9676 151.414 82.9676 151.415 82.5102C151.416 82.2465 151.416 81.9828 151.416 81.7111C151.46 81.0625 151.46 81.0625 151.802 80.3813Z" fill="white"/>
<path d="M103.829 33.038C104.742 33.9461 104.675 34.5217 104.806 35.7908C104.85 36.2142 104.894 36.6377 104.94 37.074C104.983 37.5194 105.026 37.9648 105.071 38.4238C105.117 38.8547 105.163 39.2856 105.21 39.7296C105.49 42.5041 105.601 45.2367 105.542 48.0244C105.429 48.0244 105.316 48.0244 105.199 48.0244C104.782 44.9251 104.431 41.848 104.256 38.7244C104.229 37.8174 104.229 37.8174 103.829 37.1252C103.805 36.5438 103.8 35.9615 103.807 35.3796C103.81 35.0697 103.813 34.7597 103.816 34.4403C103.82 34.2024 103.824 33.9644 103.829 33.7192C102.924 33.7192 102.019 33.7192 101.087 33.7192C101.087 47.5442 101.087 61.3691 101.087 75.613C101.54 75.613 101.992 75.613 102.458 75.613C102.461 75.3409 102.463 75.0688 102.466 74.7885C102.493 72.2179 102.523 69.6473 102.556 67.0768C102.573 65.7554 102.589 64.4341 102.602 63.1126C102.615 61.8361 102.631 60.5597 102.649 59.2833C102.655 58.7976 102.661 58.3118 102.665 57.8261C102.67 57.143 102.681 56.46 102.691 55.777C102.696 55.3889 102.7 55.0009 102.705 54.6012C102.812 53.3389 103.1 52.294 103.486 51.0898C103.825 51.0898 104.164 51.0898 104.514 51.0898C104.531 51.4999 104.547 51.91 104.565 52.3325C104.59 52.8691 104.616 53.4057 104.642 53.9423C104.658 54.348 104.658 54.348 104.675 54.7619C104.691 56.3237 104.691 56.3237 105.542 57.5612C105.653 58.3953 105.719 59.1924 105.756 60.0305C105.769 60.2801 105.782 60.5297 105.795 60.7868C105.95 64.1368 105.915 67.4921 105.885 70.8446C105.771 70.8446 105.658 70.8446 105.542 70.8446C105.525 70.474 105.508 70.1034 105.491 69.7217C105.36 67.0774 105.154 64.5101 104.677 61.9012C104.089 58.5394 104.133 55.17 104.171 51.771C103.945 51.771 103.719 51.771 103.486 51.771C103.486 59.8636 103.486 67.9563 103.486 76.2942C102.468 76.1818 101.45 76.0694 100.402 75.9536C100.402 61.9038 100.402 47.8541 100.402 33.3786C101.608 32.9789 102.563 32.9694 103.829 33.038Z" fill="white"/>
<path d="M79.059 33.3334C79.4568 33.333 79.8545 33.3325 80.2644 33.3321C80.6833 33.3334 81.1023 33.3347 81.534 33.3361C81.9516 33.3348 82.3693 33.3334 82.7996 33.3321C83.3969 33.3327 83.3969 33.3327 84.0063 33.3334C84.3738 33.3338 84.7413 33.3342 85.1199 33.3346C86.0101 33.3787 86.0101 33.3787 86.6954 33.7193C86.6954 33.9441 86.6954 34.1688 86.6954 34.4005C86.9004 34.4707 87.1054 34.541 87.3165 34.6133C88.3781 35.2766 88.6185 35.9801 89.0941 37.1253C89.2223 38.2776 89.2223 38.2776 89.2217 39.5501C89.2229 39.7835 89.2242 40.017 89.2255 40.2575C89.2282 41.0234 89.2236 41.789 89.2186 42.5549C89.2184 43.0901 89.2186 43.6252 89.2191 44.1604C89.2191 45.2796 89.2155 46.3986 89.2093 47.5178C89.2015 48.9501 89.2014 50.3824 89.2037 51.8148C89.2048 52.919 89.2025 54.0232 89.1992 55.1274C89.1979 55.6555 89.1975 56.1836 89.198 56.7117C89.1981 57.4502 89.1938 58.1885 89.1882 58.927C89.1867 59.3467 89.1851 59.7663 89.1834 60.1987C89.0957 61.2885 88.8616 62.0247 88.4088 63.0108C88.2824 63.5759 88.1645 64.1432 88.0661 64.7138C87.7269 64.489 87.3876 64.2642 87.0381 64.0326C87.0381 63.6954 87.0381 63.3582 87.0381 63.0108C87.2643 63.0108 87.4904 63.0108 87.7234 63.0108C87.7552 59.5764 87.7796 56.142 87.7945 52.7074C87.8016 51.1126 87.8113 49.5178 87.8268 47.9231C87.8417 46.3838 87.8499 44.8446 87.8535 43.3053C87.856 42.7182 87.861 42.1312 87.8684 41.5442C87.8783 40.7214 87.8797 39.899 87.879 39.0761C87.884 38.8338 87.8889 38.5915 87.894 38.3419C87.8846 37.212 87.738 36.471 87.1997 35.4706C84.7524 33.3625 80.2319 33.8732 77.4434 33.7193C77.4434 47.6566 77.4434 61.5939 77.4434 75.9536C78.348 75.9536 79.2527 75.9536 80.1847 75.9536C80.1847 76.066 80.1847 76.1784 80.1847 76.2942C79.6779 76.3033 79.171 76.31 78.6641 76.3155C78.2407 76.3214 78.2407 76.3214 77.8088 76.3274C77.1007 76.2942 77.1007 76.2942 76.758 75.9536C76.7244 75.4071 76.7148 74.8591 76.7145 74.3115C76.7136 73.9562 76.7126 73.6009 76.7116 73.2347C76.7123 72.8416 76.713 72.4484 76.7137 72.0433C76.7131 71.6319 76.7125 71.2205 76.7119 70.7966C76.7106 69.665 76.7109 68.5335 76.712 67.4019C76.7129 66.2202 76.7121 65.0385 76.7115 63.8567C76.7109 61.8719 76.7117 59.887 76.7134 57.9021C76.7152 55.6043 76.7146 53.3064 76.7127 51.0085C76.7112 49.039 76.711 47.0694 76.7119 45.0999C76.7124 43.9221 76.7125 42.7443 76.7113 41.5665C76.7102 40.2542 76.7118 38.9418 76.7137 37.6295C76.713 37.2363 76.7123 36.8432 76.7116 36.4381C76.7126 36.0828 76.7135 35.7274 76.7145 35.3613C76.7147 35.0506 76.7148 34.7399 76.7149 34.4198C76.8042 32.9688 77.8225 33.3347 79.059 33.3334Z" fill="white"/>
<path d="M144.436 80.6887C144.955 80.6946 144.955 80.6946 145.484 80.7007C145.831 80.7038 146.178 80.7068 146.535 80.71C146.937 80.7159 146.937 80.7159 147.348 80.722C147.365 82.8438 147.377 84.9656 147.385 87.0874C147.389 87.8097 147.393 88.5319 147.399 89.2541C147.408 90.2906 147.412 91.327 147.415 92.3636C147.418 92.6879 147.422 93.0122 147.425 93.3463C147.425 93.6463 147.425 93.9462 147.425 94.2553C147.427 94.52 147.428 94.7848 147.43 95.0575C147.348 95.7084 147.348 95.7084 146.662 96.3896C145.933 96.4681 145.933 96.4681 145.099 96.4534C144.823 96.4512 144.547 96.449 144.262 96.4468C143.578 96.3896 143.578 96.3896 143.236 96.049C143.202 95.5803 143.192 95.1099 143.191 94.64C143.19 94.3411 143.189 94.0422 143.188 93.7342C143.189 93.4092 143.189 93.0842 143.19 92.7494C143.19 92.4181 143.189 92.0867 143.189 91.7453C143.189 91.0432 143.189 90.3412 143.191 89.6391C143.193 88.5604 143.191 87.4818 143.189 86.4031C143.189 85.7228 143.189 85.0425 143.19 84.3621C143.189 84.0372 143.189 83.7122 143.188 83.3773C143.189 83.0784 143.19 82.7795 143.191 82.4715C143.192 82.2071 143.192 81.9427 143.192 81.6702C143.262 80.6946 143.451 80.7269 144.436 80.6887Z" fill="white"/>
<path d="M87.4233 80.7008C87.7351 80.7038 88.047 80.7069 88.3683 80.7101C88.6077 80.714 88.8471 80.718 89.0938 80.722C89.1024 82.8986 89.1084 85.0752 89.1126 87.2517C89.1143 87.9928 89.1167 88.7339 89.1196 89.4749C89.1238 90.5376 89.1257 91.6003 89.1272 92.663C89.129 92.9965 89.1308 93.33 89.1326 93.6736C89.1326 93.9804 89.1326 94.2873 89.1327 94.6034C89.1334 94.8749 89.1342 95.1464 89.135 95.4262C89.0938 96.049 89.0938 96.049 88.7511 96.3896C88.0671 96.4468 88.0671 96.4468 87.2305 96.4535C86.9553 96.4583 86.6801 96.4631 86.3966 96.4681C85.6671 96.3896 85.6671 96.3896 84.9817 95.7084C84.8993 95.0705 84.8993 95.0705 84.9039 94.2867C84.904 93.9935 84.904 93.7003 84.9041 93.3983C84.9076 93.0814 84.9112 92.7646 84.9148 92.4381C84.9158 92.114 84.9168 91.7899 84.9178 91.456C84.9216 90.4183 84.9302 89.3806 84.9389 88.343C84.9423 87.6405 84.9455 86.938 84.9483 86.2355C84.9558 84.5112 84.9677 82.7869 84.9817 81.0626C85.8469 80.6327 86.4593 80.6885 87.4233 80.7008Z" fill="white"/>
<path d="M200.804 91.9619C201.256 91.9619 201.708 91.9619 202.174 91.9619C202.182 95.3755 202.188 98.7891 202.192 102.203C202.194 103.788 202.196 105.372 202.2 106.957C202.204 108.486 202.206 110.014 202.207 111.542C202.208 112.126 202.209 112.711 202.211 113.295C202.213 114.111 202.214 114.926 202.213 115.742C202.215 115.986 202.216 116.23 202.217 116.481C202.214 118.149 202.214 118.149 201.832 118.529C201.008 118.561 200.194 118.571 199.371 118.567C198.985 118.567 198.985 118.567 198.591 118.567C197.736 118.567 196.881 118.565 196.027 118.562C195.435 118.561 194.844 118.561 194.253 118.56C192.694 118.559 191.136 118.556 189.577 118.552C187.988 118.549 186.398 118.547 184.809 118.545C181.688 118.542 178.567 118.536 175.446 118.529C175.7 116.858 176.142 116.477 177.502 115.463C177.721 115.116 177.939 114.768 178.164 114.41C178.778 113.668 179.101 113.444 180.057 113.24C181.137 113.183 182.2 113.19 183.281 113.22C183.674 113.223 184.067 113.226 184.472 113.229C185.726 113.24 186.979 113.266 188.232 113.292C189.083 113.302 189.933 113.312 190.784 113.32C192.868 113.342 194.951 113.377 197.034 113.42C197.03 113.206 197.025 112.992 197.021 112.772C196.975 110.545 196.944 108.319 196.921 106.092C196.911 105.261 196.897 104.43 196.879 103.599C196.854 102.404 196.843 101.21 196.834 100.015C196.823 99.6441 196.812 99.2729 196.801 98.8905C196.8 96.3588 196.8 96.3588 197.506 95.4254C198.075 94.9497 198.075 94.9497 199.09 94.3461C198.696 95.1867 198.389 95.7248 197.72 96.3897C197.606 97.1604 197.606 97.1604 197.611 98.0616C197.604 98.4142 197.597 98.7668 197.59 99.1301C197.586 99.5016 197.582 99.8732 197.578 100.256C197.572 100.597 197.566 100.938 197.56 101.289C197.538 102.565 197.522 103.841 197.506 105.118C197.463 107.97 197.421 110.822 197.377 113.76C191.497 113.76 185.617 113.76 179.558 113.76C179.445 114.097 179.332 114.435 179.216 114.782C178.652 115.357 178.08 115.924 177.502 116.485C177.163 116.935 176.824 117.384 176.474 117.847C184.616 117.847 192.758 117.847 201.146 117.847C201.146 109.867 201.146 101.887 201.146 93.6649C200.694 93.5525 200.242 93.4401 199.776 93.3243C200.204 92.6431 200.204 92.6431 200.804 91.9619Z" fill="white"/>
<path d="M78.0641 81.0173C78.3115 81.0182 78.5588 81.0191 78.8137 81.02C79.0611 81.0191 79.3084 81.0182 79.5633 81.0173C80.1844 81.0626 80.1844 81.0626 80.527 81.4032C80.5606 81.8614 80.5709 82.3214 80.5714 82.7809C80.5725 83.073 80.5735 83.3651 80.5746 83.666C80.574 83.9835 80.5733 84.3011 80.5725 84.6282C80.5729 84.952 80.5732 85.2758 80.5735 85.6094C80.5738 86.2954 80.5731 86.9815 80.5717 87.6675C80.5699 88.7215 80.5717 89.7755 80.5739 90.8295C80.5737 91.4943 80.5732 92.1591 80.5725 92.8239C80.5732 93.1414 80.5739 93.459 80.5746 93.7861C80.5736 94.0782 80.5725 94.3703 80.5714 94.6712C80.571 95.0588 80.571 95.0588 80.5705 95.4543C80.527 96.0489 80.527 96.0489 80.1844 96.3895C79.5633 96.4348 79.5633 96.4348 78.8137 96.4321C78.5663 96.433 78.319 96.4339 78.0641 96.4348C77.443 96.3895 77.443 96.3895 77.1003 96.0489C77.0668 95.5907 77.0565 95.1307 77.056 94.6712C77.0549 94.3792 77.0538 94.0871 77.0527 93.7861C77.0534 93.4686 77.0541 93.151 77.0548 92.8239C77.0545 92.5001 77.0542 92.1763 77.0538 91.8427C77.0536 91.1567 77.0542 90.4706 77.0557 89.7846C77.0575 88.7306 77.0557 87.6766 77.0535 86.6226C77.0537 85.9578 77.0542 85.293 77.0548 84.6282C77.0541 84.3107 77.0534 83.9932 77.0527 83.666C77.0538 83.3739 77.0549 83.0818 77.056 82.7809C77.0563 82.5225 77.0566 82.2641 77.0568 81.9978C77.1173 81.1716 77.2343 81.0778 78.0641 81.0173Z" fill="white"/>
<path d="M101.378 80.6887C102.081 80.6998 102.783 80.7109 103.486 80.722C103.495 82.8438 103.501 84.9656 103.505 87.0874C103.507 87.8097 103.509 88.5319 103.512 89.2541C103.516 90.2906 103.518 91.3271 103.52 92.3636C103.521 92.6879 103.523 93.0122 103.525 93.3463C103.525 93.6463 103.525 93.9462 103.525 94.2553C103.526 94.52 103.527 94.7848 103.527 95.0575C103.486 95.7084 103.486 95.7084 103.143 96.3896C102.352 96.3896 101.56 96.3896 100.745 96.3896C100.351 95.6061 100.359 95.163 100.358 94.292C100.357 93.9999 100.356 93.7079 100.354 93.4069C100.355 93.0912 100.356 92.7754 100.357 92.45C100.356 92.1267 100.356 91.8034 100.356 91.4703C100.355 90.7863 100.356 90.1023 100.357 89.4183C100.359 88.3673 100.357 87.3164 100.355 86.2654C100.355 85.6021 100.356 84.9389 100.357 84.2757C100.356 83.9592 100.355 83.6427 100.354 83.3167C100.356 83.0257 100.357 82.7347 100.358 82.4349C100.358 82.0488 100.358 82.0488 100.359 81.655C100.42 80.822 100.54 80.7327 101.378 80.6887Z" fill="white"/>
<path d="M124.389 33.7192C124.502 33.7192 124.615 33.7192 124.731 33.7192C124.731 47.5442 124.731 61.3691 124.731 75.613C125.523 75.613 126.315 75.613 127.13 75.613C127.127 75.2985 127.123 74.984 127.119 74.6599C127.108 73.4926 127.099 72.3253 127.092 71.158C127.089 70.6528 127.084 70.1477 127.078 69.6426C127.07 68.9163 127.066 68.1902 127.063 67.4639C127.06 67.0269 127.056 66.5899 127.052 66.1396C127.13 65.0544 127.13 65.0544 127.815 64.0326C128.632 63.9328 128.632 63.9328 129.572 63.9687C129.884 63.9779 130.195 63.9872 130.517 63.9967C130.756 64.0085 130.996 64.0204 131.242 64.0326C131.242 63.3582 131.242 62.6838 131.242 61.989C130.224 61.989 129.207 61.989 128.158 61.989C128.158 61.8766 128.158 61.7642 128.158 61.6484C128.722 61.6392 129.286 61.6326 129.85 61.6271C130.164 61.6232 130.478 61.6192 130.802 61.6151C131.585 61.6484 131.585 61.6484 131.928 61.989C131.97 63.1811 131.97 63.1811 131.928 64.3732C131.358 64.9398 130.631 64.8366 129.85 64.9054C129.535 64.9339 129.22 64.9625 128.896 64.9919C128.652 65.0125 128.409 65.0331 128.158 65.0544C128.15 65.3828 128.141 65.7112 128.132 66.0495C128.1 67.2638 128.066 68.4781 128.031 69.6923C128.016 70.2186 128.001 70.7449 127.988 71.2712C127.968 72.0262 127.946 72.7812 127.924 73.5361C127.915 73.8911 127.915 73.8911 127.907 74.2532C127.855 75.9148 127.855 75.9148 127.473 76.2942C126.96 76.3275 126.445 76.3384 125.931 76.3367C125.652 76.3376 125.372 76.3385 125.085 76.3394C124.389 76.2942 124.389 76.2942 124.046 75.9536C124.012 75.4114 124.003 74.8677 124.003 74.3245C124.002 73.972 124.001 73.6195 124 73.2563C124 72.8664 124.001 72.4764 124.002 72.0746C124.001 71.6665 124.001 71.2584 124 70.8379C123.999 69.7155 123.999 68.5931 124 67.4707C124.001 66.2985 124 65.1263 124 63.9541C123.999 61.9853 124 60.0165 124.001 58.0477C124.003 55.7683 124.003 53.489 124.001 51.2097C123.999 49.2561 123.999 47.3025 124 45.3488C124 44.1805 124.001 43.0123 123.999 41.844C123.998 40.5423 124 39.2405 124.002 37.9388C124.001 37.5488 124 37.1589 124 36.7571C124.001 36.4046 124.002 36.0521 124.003 35.689C124.003 35.3808 124.003 35.0726 124.003 34.7551C124.046 34.0598 124.046 34.0598 124.389 33.7192Z" fill="white"/>
<path d="M110.682 34.0601C111.021 34.0601 111.361 34.0601 111.71 34.0601C111.71 47.7726 111.71 61.4851 111.71 75.6132C111.371 75.6132 111.032 75.6132 110.682 75.6132C110.682 61.9007 110.682 48.1881 110.682 34.0601Z" fill="white"/>
<path d="M147.369 33.2936C147.688 33.2866 148.006 33.2796 148.335 33.2724C150.422 33.2607 151.962 33.5171 153.858 34.4006C154.886 35.4543 154.886 35.4543 154.886 36.4442C153.858 36.1036 153.858 36.1036 153.173 35.0818C152.38 34.8329 151.58 34.6045 150.774 34.4006C150.661 34.2882 150.548 34.1758 150.432 34.06C148.396 33.9476 146.361 33.8352 144.264 33.7194C144.264 47.5443 144.264 61.3693 144.264 75.6131C145.055 75.6131 145.847 75.6131 146.662 75.6131C146.661 75.2847 146.659 74.9564 146.657 74.618C146.651 73.4037 146.647 72.1895 146.643 70.9752C146.642 70.4489 146.639 69.9226 146.636 69.3963C146.632 68.6413 146.63 67.8864 146.629 67.1314C146.627 66.8948 146.625 66.6581 146.623 66.4143C146.623 65.8474 146.641 65.2805 146.662 64.7139C147.005 64.3733 147.005 64.3733 147.788 64.3401C148.102 64.344 148.416 64.348 148.74 64.3521C149.212 64.3567 149.212 64.3567 149.694 64.3614C150.059 64.3673 150.059 64.3673 150.432 64.3733C150.432 64.4857 150.432 64.5981 150.432 64.7139C148.905 64.8825 148.905 64.8825 147.348 65.0545C147.339 65.3829 147.33 65.7113 147.322 66.0496C147.289 67.264 147.255 68.4782 147.22 69.6925C147.205 70.2188 147.191 70.7451 147.177 71.2714C147.157 72.0264 147.136 72.7813 147.113 73.5363C147.105 73.8912 147.105 73.8912 147.096 74.2534C147.044 75.9149 147.044 75.9149 146.662 76.2943C146.142 76.3188 145.62 76.3229 145.099 76.3156C144.674 76.311 144.674 76.311 144.241 76.3063C143.913 76.3004 143.913 76.3004 143.578 76.2943C143.57 70.7491 143.564 65.2039 143.561 59.6587C143.559 57.0842 143.556 54.5096 143.552 51.9351C143.549 49.6919 143.547 47.4487 143.546 45.2055C143.546 44.017 143.545 42.8286 143.542 41.6401C143.539 40.3155 143.539 38.9909 143.539 37.6663C143.538 37.2694 143.537 36.8725 143.536 36.4636C143.536 36.1049 143.537 35.7462 143.537 35.3767C143.537 34.9062 143.537 34.9062 143.536 34.4262C143.641 32.6734 146.021 33.3009 147.369 33.2936Z" fill="white"/>
<path d="M31.0127 80.6887C31.5315 80.6946 31.5315 80.6946 32.0608 80.7007C32.4075 80.7038 32.7543 80.7068 33.1116 80.71C33.5137 80.7159 33.5137 80.7159 33.9241 80.722C33.9326 81.0916 33.9412 81.4613 33.9501 81.8422C33.9823 83.2088 34.0166 84.5754 34.0516 85.942C34.0665 86.5344 34.0808 87.1268 34.0945 87.7192C34.1142 88.5688 34.136 89.4185 34.1583 90.2681C34.164 90.5345 34.1698 90.801 34.1757 91.0755C34.0976 92.3019 34.0976 92.3019 34.6094 93.3242C35.9906 93.4347 35.9906 93.4347 37.3507 93.3242C38.1746 92.0958 38.1546 91.1658 38.178 89.7439C38.1846 89.4958 38.1912 89.2478 38.1981 88.9923C38.2185 88.2011 38.2344 87.4099 38.2502 86.6186C38.2633 86.0818 38.2767 85.5449 38.2904 85.0081C38.3233 83.693 38.3521 82.3778 38.3787 81.0626C39.5096 81.0626 40.6404 81.0626 41.8054 81.0626C41.8309 82.8261 41.8495 84.5896 41.8619 86.3533C41.8671 86.9529 41.8741 87.5525 41.883 88.1521C41.8955 89.0153 41.9013 89.8784 41.9058 90.7417C41.9111 91.0086 41.9164 91.2755 41.9219 91.5504C41.9225 93.4618 41.4963 94.4908 40.3063 95.9425C38.9348 97.0436 37.5246 97.1639 35.8087 97.1559C35.4306 97.1577 35.0525 97.1594 34.6629 97.1612C33.5937 97.0718 32.8333 96.8406 31.868 96.3896C31.9811 96.1648 32.0942 95.94 32.2107 95.7084C32.5771 95.788 32.5771 95.788 32.9509 95.8693C35.2711 96.338 37.0893 96.5616 39.3425 95.6658C40.6554 94.5473 40.748 92.9944 40.8867 91.3405C40.9007 90.8776 40.9115 90.4145 40.9193 89.9514C40.926 89.7053 40.9326 89.4592 40.9394 89.2057C40.9597 88.4285 40.9757 87.6513 40.9916 86.8741C41.0047 86.3434 41.0181 85.8128 41.0318 85.2822C41.0645 83.9892 41.0933 82.6963 41.1201 81.4032C40.4416 81.4032 39.7631 81.4032 39.0641 81.4032C39.0695 81.7002 39.0749 81.9973 39.0804 82.3033C39.098 83.4148 39.1109 84.5262 39.1206 85.6378C39.1257 86.1171 39.1327 86.5964 39.1416 87.0757C39.1542 87.7682 39.16 88.4605 39.1645 89.1531C39.1699 89.5687 39.1752 89.9843 39.1808 90.4125C39.0417 91.8532 38.7232 92.733 38.0361 94.0054C36.8184 94.4088 35.8875 94.4367 34.6094 94.346C34.0267 94.0036 34.0267 94.0036 33.5814 93.3242C33.4917 92.3705 33.4618 91.4944 33.481 90.5422C33.4824 90.2714 33.4839 90.0007 33.4854 89.7218C33.4912 88.8576 33.5041 87.9936 33.5171 87.1295C33.5223 86.5434 33.527 85.9574 33.5312 85.3713C33.5425 83.935 33.5603 82.4988 33.5814 81.0626C32.5637 81.0626 31.5459 81.0626 30.4974 81.0626C30.521 82.6746 30.5512 84.2862 30.5873 85.898C30.5987 86.4457 30.6083 86.9934 30.6161 87.5411C30.6276 88.331 30.6456 89.1205 30.6647 89.9102C30.668 90.2743 30.668 90.2743 30.6713 90.6458C30.7181 92.2451 31.1153 93.2899 31.868 94.6866C31.755 94.9114 31.6419 95.1362 31.5254 95.3678C30.0285 93.5702 29.56 92.4683 29.6327 90.155C29.6343 89.8946 29.6359 89.6342 29.6375 89.3658C29.6448 88.542 29.6642 87.719 29.6835 86.8953C29.6892 86.3348 29.6941 85.7742 29.6982 85.2136C29.7492 80.7377 29.7492 80.7377 31.0127 80.6887Z" fill="white"/>
<path d="M64.7643 36.4441C65.4971 37.5365 65.5349 37.8089 65.5321 39.0628C65.533 39.391 65.534 39.7191 65.535 40.0571C65.5325 40.4165 65.53 40.7759 65.5275 41.1462C65.5276 41.5251 65.5277 41.9039 65.5278 42.2943C65.5273 43.5493 65.522 44.8043 65.5166 46.0594C65.5153 46.9285 65.5144 47.7975 65.5137 48.6666C65.5113 50.7221 65.5059 52.7775 65.499 54.8329C65.4914 57.173 65.4876 59.5132 65.4842 61.8533C65.477 66.6669 65.465 71.4806 65.4497 76.2942C64.8857 76.3034 64.3218 76.31 63.7578 76.3155C63.4437 76.3195 63.1296 76.3234 62.8061 76.3275C62.023 76.2942 62.023 76.2942 61.6803 75.9536C61.6475 75.4452 61.6386 74.9352 61.6391 74.4257C61.6387 74.0956 61.6382 73.7656 61.6377 73.4255C61.6389 73.0605 61.6402 72.6955 61.6414 72.3194C61.6414 71.9373 61.6413 71.5552 61.6413 71.1615C61.6415 69.8917 61.6442 68.622 61.6469 67.3522C61.6475 66.4745 61.648 65.5968 61.6483 64.7191C61.6495 62.6407 61.6522 60.5623 61.6557 58.4839C61.6595 56.1183 61.6614 53.7527 61.6631 51.3871C61.6667 46.5196 61.6727 41.6521 61.6803 36.7847C62.0196 36.9533 62.0196 36.9533 62.3657 37.1253C62.4787 49.8262 62.5918 62.5272 62.7083 75.613C63.4999 75.7254 64.2915 75.8378 65.107 75.9536C64.9939 62.9155 64.8809 49.8773 64.7643 36.4441Z" fill="white"/>
<path d="M39.0752 66.031C39.3543 66.0319 39.6335 66.0328 39.9211 66.0337C40.2003 66.0328 40.4795 66.0319 40.7671 66.031C41.4631 66.0762 41.4631 66.0762 41.8058 66.4168C41.8401 67.1435 41.8506 67.8713 41.8513 68.5988C41.8518 69.0418 41.8522 69.4848 41.8527 69.9412C41.8516 70.2891 41.8516 70.2891 41.8505 70.6439C41.8487 71.3526 41.8505 72.0612 41.8527 72.7698C41.8522 73.2128 41.8518 73.6558 41.8513 74.1123C41.8509 74.5221 41.8506 74.932 41.8502 75.3543C41.8058 76.2942 41.8058 76.2942 41.4631 76.6348C40.8854 76.6594 40.3066 76.6634 39.7284 76.6561C39.4134 76.653 39.0985 76.65 38.774 76.6468C38.5306 76.6428 38.2872 76.6389 38.0365 76.6348C38.028 75.1859 38.0218 73.7369 38.0176 72.2879C38.0159 71.7947 38.0136 71.3014 38.0106 70.8081C38.0065 70.1005 38.0045 69.3929 38.003 68.6853C38.0012 68.259 37.9994 67.8327 37.9976 67.3935C38.0492 66.0977 38.0492 66.0977 39.0752 66.031Z" fill="white"/>
<path d="M8.54891 10.5161C8.7912 10.5173 9.03349 10.5186 9.28312 10.5198C9.66421 10.5197 9.66421 10.5197 10.053 10.5197C10.8966 10.5199 11.7403 10.5226 12.5839 10.5252C13.1673 10.5259 13.7507 10.5263 14.3341 10.5267C15.8726 10.528 17.4111 10.5313 18.9496 10.5351C20.5183 10.5386 22.087 10.5401 23.6557 10.5419C26.736 10.5455 29.8162 10.5513 32.8964 10.5585C32.5484 12.5062 31.8852 13.5741 30.4392 14.954C27.6759 16.7919 23.3258 15.9935 20.1748 15.8804C19.3485 15.8633 18.5222 15.8477 17.6958 15.8338C15.6801 15.7964 13.6657 15.7396 11.6509 15.6675C11.6509 15.5551 11.6509 15.4427 11.6509 15.3269C11.9626 15.3307 11.9626 15.3307 12.2806 15.3346C14.4545 15.3581 16.6277 15.3601 18.8017 15.3498C19.6117 15.3487 20.4216 15.3531 21.2315 15.3631C22.3999 15.3765 23.5668 15.3702 24.7353 15.3601C25.0941 15.3685 25.453 15.3769 25.8227 15.3855C27.9561 15.3445 29.0171 14.9801 30.558 13.4728C31.214 12.7434 31.7715 12.1136 32.2111 11.2397C23.8431 11.2397 15.4751 11.2397 6.85357 11.2397C6.85357 19.5571 6.85357 27.8746 6.85357 36.444C7.07973 36.5564 7.30589 36.6688 7.5389 36.7846C7.19966 36.7846 6.86042 36.7846 6.5109 36.7846C6.50297 33.4155 6.49688 30.0463 6.49314 26.6771C6.49135 25.1128 6.48892 23.5486 6.48505 21.9843C6.48133 20.476 6.47928 18.9676 6.47839 17.4593C6.47775 16.8825 6.47651 16.3058 6.47467 15.729C6.4722 14.924 6.47184 14.119 6.472 13.314C6.47076 13.0731 6.46953 12.8323 6.46826 12.5842C6.47249 10.6236 6.57644 10.5203 8.54891 10.5161Z" fill="white"/>
<path d="M199.433 93.6648C199.999 93.6648 200.564 93.6648 201.147 93.6648C201.147 101.645 201.147 109.625 201.147 117.847C193.005 117.847 184.863 117.847 176.475 117.847C177.078 116.647 177.667 115.796 178.531 114.782C178.755 114.507 178.755 114.507 178.983 114.226C179.764 113.594 180.249 113.637 181.248 113.644C181.763 113.644 181.763 113.644 182.287 113.644C182.842 113.652 182.842 113.652 183.407 113.66C183.786 113.662 184.165 113.663 184.555 113.665C185.767 113.67 186.978 113.683 188.19 113.696C189.01 113.701 189.831 113.706 190.652 113.71C192.665 113.722 194.679 113.739 196.692 113.76C196.692 113.873 196.692 113.985 196.692 114.101C196.392 114.098 196.392 114.098 196.086 114.095C193.996 114.079 191.906 114.083 189.815 114.097C189.036 114.099 188.257 114.097 187.478 114.09C186.355 114.081 185.233 114.089 184.11 114.101C183.764 114.094 183.418 114.088 183.062 114.081C180.005 114.142 179.959 114.724 177.503 117.166C189.037 117.335 189.037 117.335 200.804 117.507C200.691 109.864 200.578 102.221 200.461 94.346C198.187 96.2437 198.187 96.2437 197.759 98.5016C197.752 98.8288 197.746 99.1559 197.739 99.4929C197.744 99.8382 197.749 100.184 197.754 100.539C197.749 100.899 197.745 101.258 197.741 101.629C197.73 102.771 197.735 103.912 197.741 105.054C197.737 105.83 197.731 106.607 197.725 107.384C197.711 109.282 197.71 111.18 197.72 113.079C197.607 113.079 197.494 113.079 197.377 113.079C197.343 110.727 197.319 108.375 197.302 106.023C197.295 105.223 197.286 104.423 197.274 103.623C197.257 102.473 197.25 101.323 197.244 100.173C197.236 99.8154 197.229 99.4574 197.222 99.0885C197.221 96.5931 197.221 96.5931 198.044 95.5198C198.393 95.276 198.393 95.276 198.748 95.0272C199.171 94.3007 199.171 94.3007 199.433 93.6648Z" fill="white"/>
<path d="M106.227 54.4958C106.34 54.4958 106.453 54.4958 106.57 54.4958C106.956 57.2263 106.945 59.9187 106.913 62.6702C107.139 62.6702 107.365 62.6702 107.598 62.6702C107.644 63.097 107.689 63.5238 107.736 63.9634C107.797 64.5258 107.858 65.0881 107.919 65.6505C107.949 65.9315 107.979 66.2125 108.01 66.502C108.039 66.7742 108.069 67.0464 108.1 67.3269C108.127 67.5766 108.154 67.8263 108.182 68.0836C108.269 68.8012 108.269 68.8012 108.464 69.4869C108.636 70.204 108.665 70.8269 108.659 71.5631C108.658 71.8199 108.657 72.0768 108.656 72.3414C108.653 72.6061 108.65 72.8709 108.647 73.1437C108.646 73.4137 108.644 73.6837 108.643 73.9619C108.639 74.6258 108.633 75.2897 108.626 75.9536C107.948 75.9536 107.269 75.9536 106.57 75.9536C105.716 71.1082 105.669 66.2147 105.542 61.3078C105.655 61.3078 105.768 61.3078 105.885 61.3078C105.998 59.0599 106.111 56.8119 106.227 54.4958Z" fill="white"/>
<path d="M57.9111 33.0382C60.2468 32.9248 61.9962 32.9557 64.0792 34.06C64.0792 34.2848 64.0792 34.5096 64.0792 34.7412C64.4184 34.8536 64.7577 34.966 65.1072 35.0818C66.3079 37.209 66.279 39.6233 66.2573 41.9915C66.258 42.3635 66.2587 42.7355 66.2595 43.1187C66.2605 44.3389 66.2542 45.559 66.2476 46.7792C66.2466 47.6293 66.2459 48.4794 66.2457 49.3294C66.2439 51.3326 66.2373 53.3356 66.2286 55.3387C66.22 57.3938 66.218 59.4488 66.2166 61.5038C66.2152 63.2563 66.2118 65.0088 66.2077 66.7613C66.2058 67.6033 66.2041 68.4453 66.2028 69.2873C66.2005 70.459 66.1958 71.6307 66.1904 72.8025C66.19 73.1531 66.1896 73.5038 66.1892 73.8651C66.1873 74.1821 66.1853 74.4991 66.1833 74.8257C66.1818 75.2413 66.1818 75.2413 66.1802 75.6652C66.1352 76.2943 66.1352 76.2943 65.7925 76.6349C65.2147 76.6594 64.636 76.6635 64.0578 76.6562C63.7428 76.6531 63.4279 76.65 63.1034 76.6469C62.86 76.6429 62.6166 76.639 62.3658 76.6349C62.3658 76.5225 62.3658 76.4101 62.3658 76.2943C63.3836 76.2943 64.4013 76.2943 65.4498 76.2943C65.4289 71.2611 65.4025 66.2279 65.3691 61.1948C65.3537 58.8577 65.3402 56.5207 65.3311 54.1837C65.3224 51.9289 65.3084 49.6741 65.2911 47.4193C65.2854 46.5585 65.2815 45.6977 65.2793 44.8369C65.276 43.6324 65.2664 42.4281 65.2553 41.2236C65.2558 40.8667 65.2563 40.5097 65.2568 40.1419C65.234 38.3916 65.2042 37.1957 64.0792 35.763C63.9944 35.5171 63.9096 35.2712 63.8222 35.0179C63.2591 34.2063 62.6518 34.0689 61.7099 33.8458C60.4504 33.623 59.1852 33.4879 57.9111 33.3788C57.9111 33.2664 57.9111 33.154 57.9111 33.0382Z" fill="white"/>
<path d="M83.6113 33.7192C85.2656 33.7586 86.371 33.806 87.7019 34.8475C88.9399 36.4508 89.1801 37.4307 89.1827 39.4728C89.1839 39.7061 89.1851 39.9394 89.1863 40.1798C89.1894 40.9494 89.1874 41.7188 89.1851 42.4883C89.1855 43.0245 89.1862 43.5606 89.187 44.0968C89.188 45.22 89.1866 46.3432 89.1834 47.4664C89.1795 48.9041 89.1817 50.3417 89.1858 51.7795C89.1883 52.8866 89.1875 53.9937 89.1857 55.1009C89.1853 55.6309 89.1858 56.1609 89.1874 56.6909C89.1892 57.4327 89.1865 58.1744 89.1827 58.9162C89.1819 59.5488 89.1819 59.5488 89.1811 60.1941C89.0956 61.2877 88.8636 62.022 88.4087 63.0108C88.2823 63.5759 88.1644 64.1432 88.066 64.7138C87.7268 64.489 87.3875 64.2642 87.038 64.0326C87.038 63.6954 87.038 63.3582 87.038 63.0108C87.2642 63.0108 87.4903 63.0108 87.7234 63.0108C87.7551 59.5764 87.7795 56.142 87.7944 52.7074C87.8015 51.1126 87.8112 49.5178 87.8268 47.923C87.8417 46.3838 87.8498 44.8446 87.8534 43.3053C87.8559 42.7182 87.8609 42.1312 87.8683 41.5441C87.8782 40.7214 87.8796 39.899 87.879 39.0761C87.8839 38.8338 87.8888 38.5915 87.8939 38.3419C87.8803 36.7102 87.5191 35.8836 86.3527 34.741C85.6378 34.4013 85.6378 34.4013 84.8963 34.294C84.2603 34.1781 84.2603 34.1781 83.6113 34.0598C83.6113 33.9474 83.6113 33.835 83.6113 33.7192Z" fill="white"/>
<path d="M168.936 80.7222C169.924 81.7047 169.719 82.4322 169.739 83.8062C169.744 84.0439 169.749 84.2816 169.754 84.5266C169.77 85.2878 169.782 86.049 169.793 86.8104C169.807 87.8101 169.825 88.8096 169.846 89.8092C169.853 90.2544 169.859 90.6995 169.866 91.1582C169.956 92.2055 170.091 92.7901 170.649 93.6649C171.441 93.6649 172.232 93.6649 173.048 93.6649C173.836 92.4192 173.829 91.3348 173.851 89.8838C173.856 89.6529 173.861 89.4221 173.866 89.1843C173.888 88.2001 173.901 87.2159 173.915 86.2316C173.927 85.5118 173.942 84.7921 173.958 84.0723C173.965 83.6422 173.971 83.2121 173.978 82.7689C174.076 81.744 174.076 81.744 174.761 81.0628C174.778 82.6261 174.791 84.1893 174.799 85.7527C174.802 86.2839 174.807 86.815 174.813 87.3462C174.821 88.1123 174.825 88.8782 174.828 89.6443C174.832 89.8796 174.835 90.1149 174.839 90.3573C174.839 91.816 174.63 92.9952 174.076 94.3461C173.733 94.6867 173.733 94.6867 172.95 94.72C172.479 94.7141 172.479 94.7141 171.998 94.708C171.684 94.705 171.369 94.7019 171.044 94.6987C170.801 94.6948 170.557 94.6908 170.307 94.6867C169.15 92.9302 168.767 91.8355 168.802 89.6855C168.804 89.447 168.806 89.2084 168.808 88.9627C168.816 88.2095 168.833 87.4569 168.85 86.7039C168.857 86.1897 168.863 85.6755 168.869 85.1613C168.884 83.9084 168.908 82.656 168.936 81.4034C168.144 81.4034 167.353 81.4034 166.537 81.4034C166.578 82.9667 166.62 84.53 166.665 86.0933C166.68 86.6244 166.694 87.1556 166.708 87.6868C166.728 88.4529 166.749 89.2189 166.771 89.9849C166.777 90.2202 166.783 90.4555 166.789 90.6979C166.83 92.0551 166.966 93.3531 167.223 94.6867C166.537 94.3461 166.537 94.3461 166.156 93.4692C165.818 92.1714 165.765 90.9733 165.785 89.6443C165.786 89.3977 165.787 89.1511 165.788 88.897C165.792 88.1163 165.8 87.3356 165.809 86.5549C165.812 86.0227 165.816 85.4906 165.818 84.9584C165.826 83.6598 165.838 82.3613 165.852 81.0628C166.884 80.5496 167.799 80.6616 168.936 80.7222Z" fill="white"/>
<path d="M151.802 80.3813C153.046 80.3813 154.29 80.3813 155.572 80.3813C155.964 81.1605 155.962 81.6072 155.97 82.4735C155.973 82.7645 155.976 83.0554 155.98 83.3552C155.981 83.6699 155.983 83.9846 155.984 84.3089C155.986 84.6314 155.988 84.9539 155.99 85.2862C155.993 85.9687 155.995 86.6513 155.997 87.3339C156 88.3812 156.011 89.4283 156.022 90.4756C156.024 91.1377 156.026 91.7999 156.027 92.462C156.031 92.7767 156.035 93.0914 156.04 93.4156C156.039 93.7066 156.038 93.9976 156.037 94.2974C156.038 94.554 156.039 94.8106 156.04 95.075C155.999 95.284 155.957 95.493 155.914 95.7083C154.828 96.428 154.545 96.4755 153.302 96.4534C153.029 96.4512 152.756 96.449 152.474 96.4467C151.802 96.3895 151.802 96.3895 151.46 96.0489C151.426 95.582 151.416 95.1134 151.415 94.6454C151.414 94.3475 151.413 94.0497 151.412 93.7429C151.413 93.257 151.413 93.257 151.414 92.7613C151.414 92.4308 151.414 92.1003 151.413 91.7597C151.413 91.0591 151.414 90.3584 151.415 89.6578C151.417 88.5828 151.415 87.5079 151.413 86.433C151.413 85.7538 151.414 85.0746 151.414 84.3954C151.414 84.0721 151.413 83.7489 151.412 83.4159C151.414 82.9676 151.414 82.9676 151.415 82.5102C151.416 82.2465 151.416 81.9828 151.416 81.7111C151.46 81.0625 151.46 81.0625 151.802 80.3813ZM152.145 81.0625C152.145 85.8957 152.145 90.7288 152.145 95.7083C153.05 95.7083 153.954 95.7083 154.886 95.7083C154.886 90.8752 154.886 86.0421 154.886 81.0625C153.982 81.0625 153.077 81.0625 152.145 81.0625Z" fill="white"/>
<path d="M86.0098 81.4033C86.6883 81.4033 87.3667 81.4033 88.0658 81.4033C88.0658 86.124 88.0658 90.8447 88.0658 95.7085C87.3873 95.7085 86.7088 95.7085 86.0098 95.7085C86.0098 90.9878 86.0098 86.2671 86.0098 81.4033Z" fill="white"/>
<path d="M200.804 91.9619C201.256 91.9619 201.708 91.9619 202.174 91.9619C202.182 95.3755 202.188 98.7891 202.192 102.203C202.194 103.788 202.196 105.372 202.2 106.957C202.204 108.486 202.206 110.014 202.207 111.542C202.208 112.126 202.209 112.711 202.211 113.295C202.213 114.111 202.214 114.926 202.213 115.742C202.215 115.986 202.216 116.23 202.217 116.481C202.214 118.149 202.214 118.149 201.832 118.529C201.008 118.561 200.194 118.571 199.371 118.567C198.985 118.567 198.985 118.567 198.591 118.567C197.736 118.567 196.881 118.565 196.027 118.562C195.435 118.561 194.844 118.561 194.253 118.56C192.694 118.559 191.136 118.556 189.577 118.552C187.988 118.549 186.398 118.547 184.809 118.545C181.688 118.542 178.567 118.536 175.446 118.529C175.616 118.191 175.616 118.191 175.789 117.847C184.27 117.96 192.751 118.072 201.489 118.188C201.489 109.758 201.489 101.328 201.489 92.6431C201.15 92.5307 200.811 92.4183 200.461 92.3025C200.574 92.1901 200.687 92.0777 200.804 91.9619Z" fill="white"/>
<path d="M125.097 80.6887C125.52 80.6946 125.52 80.6946 125.952 80.7007C126.235 80.7038 126.519 80.7068 126.81 80.71C127.029 80.714 127.248 80.7179 127.473 80.722C127.998 81.7662 127.857 82.8579 127.849 84.0029C127.848 84.259 127.848 84.5151 127.847 84.7789C127.846 85.5979 127.841 86.4169 127.837 87.2359C127.835 87.7908 127.834 88.3456 127.832 88.9004C127.828 90.2614 127.823 91.6225 127.816 92.9836C128.329 92.9776 128.329 92.9776 128.853 92.9716C129.295 92.9685 129.737 92.9654 130.193 92.9623C130.634 92.9583 131.075 92.9544 131.53 92.9503C132.613 92.9836 132.613 92.9836 132.956 93.3242C133.001 93.9415 133.001 93.9415 132.998 94.6866C133 95.0554 133 95.0554 133.001 95.4316C132.956 96.049 132.956 96.049 132.613 96.3896C132.007 96.4234 131.399 96.4341 130.792 96.4348C130.424 96.4352 130.056 96.4357 129.676 96.4361C129.288 96.4348 128.9 96.4335 128.501 96.4321C128.113 96.4334 127.725 96.4348 127.326 96.4361C126.957 96.4357 126.589 96.4352 126.209 96.4348C125.869 96.4344 125.528 96.434 125.177 96.4336C124.389 96.3896 124.389 96.3896 124.046 96.049C124.013 95.5803 124.002 95.1099 124.002 94.64C124.001 94.3411 124 94.0422 123.999 93.7342C123.999 93.4092 124 93.0842 124.001 92.7494C124 92.4181 124 92.0867 124 91.7453C123.999 91.0432 124 90.3412 124.001 89.6391C124.003 88.5604 124.001 87.4818 123.999 86.4031C124 85.7228 124 85.0425 124.001 84.3621C124 84.0372 123.999 83.7122 123.999 83.3773C124 83.0784 124.001 82.7795 124.002 82.4715C124.002 82.2071 124.002 81.9427 124.003 81.6702C124.066 80.78 124.202 80.7307 125.097 80.6887ZM124.731 81.4032C124.731 86.2363 124.731 91.0694 124.731 96.049C127.332 96.049 129.933 96.049 132.613 96.049C132.613 95.2622 132.613 94.4754 132.613 93.6648C130.804 93.5524 128.994 93.44 127.13 93.3242C127.13 89.3902 127.13 85.4563 127.13 81.4032C126.339 81.4032 125.547 81.4032 124.731 81.4032Z" fill="white"/>
<path d="M167.908 69.4397C168.268 69.4384 168.268 69.4384 168.636 69.437C169.279 69.4822 169.279 69.4822 169.964 69.8228C169.964 71.846 169.964 73.8692 169.964 75.9536C168.633 76.3945 167.597 76.3392 166.195 76.2942C165.852 75.9536 165.852 75.9536 165.813 75.3522C165.815 75.0971 165.817 74.8421 165.818 74.5793C165.82 74.3038 165.821 74.0283 165.822 73.7444C165.825 73.4548 165.828 73.1653 165.83 72.867C165.832 72.5761 165.834 72.2852 165.835 71.9855C165.839 71.2646 165.845 70.5437 165.852 69.8228C166.621 69.4405 167.056 69.4366 167.908 69.4397Z" fill="white"/>
<path d="M155.229 36.4441C155.455 36.4441 155.682 36.4441 155.915 36.4441C156.285 37.6452 156.307 38.7657 156.318 40.0181C156.324 40.6918 156.324 40.6918 156.331 41.379C156.334 41.8685 156.337 42.3581 156.339 42.8476C156.34 43.0952 156.342 43.3427 156.343 43.5977C156.35 44.9079 156.355 46.218 156.358 47.5281C156.362 48.8773 156.374 50.2262 156.388 51.5753C156.396 52.6164 156.399 53.6575 156.401 54.6987C156.402 55.1958 156.406 55.6929 156.413 56.19C156.47 60.9768 156.47 60.9768 154.887 63.0108C154.66 62.8985 154.434 62.7861 154.201 62.6702C154.371 62.3331 154.371 62.3331 154.544 61.989C155.014 59.1612 154.96 56.2647 154.995 53.4075C155.002 52.916 155.009 52.4246 155.017 51.9331C155.035 50.6509 155.052 49.3686 155.069 48.0864C155.086 46.7734 155.105 45.4605 155.124 44.1475C155.161 41.5797 155.196 39.0119 155.229 36.4441Z" fill="white"/>
<path d="M6.85352 11.2397C15.2215 11.2397 23.5895 11.2397 32.211 11.2397C32.0979 11.4645 31.9848 11.6893 31.8683 11.9209C23.8396 11.8085 15.8109 11.6961 7.53885 11.5803C7.65193 19.673 7.76501 27.7656 7.88152 36.1035C7.37266 36.2721 7.37266 36.2721 6.85352 36.4441C6.85352 28.1267 6.85352 19.8092 6.85352 11.2397Z" fill="white"/>
<path d="M82.6902 64.6287C83.0211 64.6199 83.3519 64.6111 83.6928 64.6021C84.827 64.736 85.2134 64.9259 86.0098 65.7356C86.1969 66.7896 86.1969 66.7896 86.2186 68.0706C86.2271 68.4086 86.2271 68.4086 86.2358 68.7535C86.2524 69.4718 86.2597 70.1899 86.2668 70.9085C86.2765 71.3961 86.2867 71.8837 86.2976 72.3713C86.3229 73.5654 86.3399 74.7593 86.3525 75.9536C87.5398 76.1222 87.5398 76.1222 88.7512 76.2942C88.7033 74.8111 88.6525 73.3281 88.6012 71.8451C88.5878 71.4265 88.5743 71.0078 88.5604 70.5765C88.4907 68.5993 88.4127 66.6636 88.0658 64.7138C88.292 64.8262 88.5181 64.9386 88.7512 65.0544C89.1553 66.2595 89.1325 67.2143 89.1273 68.4857C89.1268 68.7186 89.1263 68.9515 89.1258 69.1915C89.1239 69.9341 89.1196 70.6767 89.1152 71.4194C89.1135 71.9234 89.112 72.4274 89.1106 72.9314C89.1068 74.1659 89.1009 75.4003 89.0938 76.6348C88.5371 76.6532 87.9802 76.6664 87.4233 76.6774C86.9582 76.6892 86.9582 76.6892 86.4837 76.7013C85.6671 76.6348 85.6671 76.6348 84.9818 75.9536C84.878 74.9437 84.878 74.9437 84.852 73.6639C84.8461 73.4388 84.8403 73.2138 84.8343 72.982C84.8161 72.2624 84.8023 71.5429 84.789 70.8233C84.774 70.1025 84.758 69.3818 84.7401 68.661C84.7241 68.0079 84.7113 67.3547 84.6986 66.7014C84.7489 65.7695 84.7489 65.7695 84.2965 65.395C83.2787 65.2826 82.261 65.1702 81.2124 65.0544C81.2124 68.6511 81.2124 72.2479 81.2124 75.9536C80.9863 75.9536 80.7601 75.9536 80.5271 75.9536C80.5187 74.4076 80.5124 72.8617 80.5083 71.3157C80.5066 70.7894 80.5042 70.263 80.5013 69.7367C80.4971 68.9818 80.4952 68.2268 80.4936 67.4719C80.4919 67.2352 80.4901 66.9986 80.4883 66.7548C80.4882 66.1878 80.5059 65.6209 80.5271 65.0544C81.1176 64.4674 81.8864 64.6414 82.6902 64.6287Z" fill="white"/>
<path d="M55.886 80.6436C56.5406 80.7221 56.5406 80.7221 57.2259 81.4033C57.3243 82.4595 57.3243 82.4595 57.3437 83.8061C57.3487 84.0438 57.3537 84.2815 57.3589 84.5264C57.3748 85.2877 57.3865 86.0489 57.3972 86.8103C57.4114 87.81 57.4298 88.8095 57.4508 89.8091C57.4572 90.2543 57.4636 90.6994 57.4702 91.1581C57.5604 92.207 57.6547 92.8092 58.2539 93.6648C59.1715 93.9505 60.0268 93.9433 60.9953 94.0054C61.1083 93.6682 61.2214 93.331 61.3379 92.9836C61.451 93.4332 61.5641 93.8828 61.6806 94.346C60.2105 94.346 58.7405 94.346 57.2259 94.346C56.6684 92.6442 56.4585 91.2279 56.4736 89.4193C56.4746 89.1883 56.4756 88.9573 56.4766 88.7194C56.4804 87.9907 56.489 87.2622 56.4977 86.5335C56.5012 86.0357 56.5043 85.5379 56.5071 85.0401C56.5146 83.8278 56.5264 82.6155 56.5406 81.4033C55.8621 81.4033 55.1836 81.4033 54.4846 81.4033C54.4863 81.69 54.4881 81.9767 54.49 82.2721C54.4959 83.3455 54.5001 84.4189 54.5034 85.4924C54.5051 85.9551 54.5074 86.4179 54.5104 86.8807C54.5146 87.5495 54.5163 88.2183 54.518 88.8871C54.5198 89.2884 54.5216 89.6898 54.5235 90.1033C54.4835 91.3125 54.3357 92.4712 54.1419 93.6648C53.3226 92.4036 53.3626 91.173 53.3776 89.7227C53.3777 89.4759 53.3779 89.2292 53.378 88.975C53.3791 88.4554 53.3818 87.9358 53.386 87.4162C53.3923 86.6179 53.393 85.8198 53.393 85.0215C53.3946 84.5165 53.3966 84.0116 53.399 83.5067C53.3994 83.2669 53.3998 83.0271 53.4001 82.78C53.4219 80.5808 53.6914 80.6871 55.886 80.6436Z" fill="white"/>
<path d="M103.829 33.038C104.742 33.9461 104.675 34.5217 104.806 35.7908C104.85 36.2142 104.894 36.6377 104.94 37.074C104.983 37.5194 105.026 37.9648 105.071 38.4238C105.117 38.8547 105.163 39.2856 105.21 39.7296C105.49 42.5041 105.601 45.2367 105.542 48.0244C105.429 48.0244 105.316 48.0244 105.199 48.0244C104.782 44.9251 104.431 41.848 104.256 38.7244C104.229 37.8174 104.229 37.8174 103.829 37.1252C103.805 36.5438 103.8 35.9615 103.807 35.3796C103.81 35.0697 103.813 34.7597 103.816 34.4403C103.82 34.2024 103.824 33.9644 103.829 33.7192C102.811 33.7192 101.793 33.7192 100.745 33.7192C100.745 47.6566 100.745 61.5939 100.745 75.9536C100.631 75.9536 100.518 75.9536 100.402 75.9536C100.402 61.9038 100.402 47.8541 100.402 33.3786C101.608 32.9789 102.563 32.9694 103.829 33.038Z" fill="white"/>
<path d="M144.436 80.6887C144.955 80.6946 144.955 80.6946 145.484 80.7007C145.831 80.7038 146.178 80.7068 146.535 80.71C146.937 80.7159 146.937 80.7159 147.348 80.722C147.365 82.8438 147.377 84.9656 147.385 87.0874C147.389 87.8097 147.393 88.5319 147.399 89.2541C147.408 90.2906 147.412 91.327 147.415 92.3636C147.418 92.6879 147.422 93.0122 147.425 93.3463C147.425 93.6463 147.425 93.9462 147.425 94.2553C147.427 94.52 147.428 94.7848 147.43 95.0575C147.348 95.7084 147.348 95.7084 146.662 96.3896C145.933 96.4681 145.933 96.4681 145.099 96.4534C144.823 96.4512 144.547 96.449 144.262 96.4468C143.578 96.3896 143.578 96.3896 143.236 96.049C143.202 95.5803 143.192 95.1099 143.191 94.64C143.19 94.3411 143.189 94.0422 143.188 93.7342C143.189 93.4092 143.189 93.0842 143.19 92.7494C143.19 92.4181 143.189 92.0867 143.189 91.7453C143.189 91.0432 143.189 90.3412 143.191 89.6391C143.193 88.5604 143.191 87.4818 143.189 86.4031C143.189 85.7228 143.189 85.0425 143.19 84.3621C143.189 84.0372 143.189 83.7122 143.188 83.3773C143.189 83.0784 143.19 82.7795 143.191 82.4715C143.192 82.2071 143.192 81.9427 143.192 81.6702C143.262 80.6946 143.451 80.7269 144.436 80.6887ZM143.921 81.0626C143.921 85.8957 143.921 90.7288 143.921 95.7084C144.826 95.7084 145.73 95.7084 146.662 95.7084C146.662 90.8753 146.662 86.0421 146.662 81.0626C145.758 81.0626 144.853 81.0626 143.921 81.0626Z" fill="white"/>
<path d="M103.486 51.0898C103.825 51.0898 104.165 51.0898 104.514 51.0898C104.531 51.4999 104.548 51.91 104.565 52.3325C104.591 52.8691 104.617 53.4058 104.643 53.9424C104.653 54.2128 104.664 54.4833 104.675 54.7619C104.692 56.3237 104.692 56.3237 105.542 57.5612C105.653 58.3953 105.72 59.1925 105.756 60.0306C105.769 60.2802 105.782 60.5297 105.796 60.7869C105.95 64.1369 105.915 67.4921 105.885 70.8446C105.772 70.8446 105.659 70.8446 105.542 70.8446C105.525 70.4741 105.509 70.1035 105.491 69.7217C105.36 67.0774 105.154 64.5101 104.677 61.9012C104.09 58.5394 104.133 55.17 104.171 51.771C103.945 51.771 103.719 51.771 103.486 51.771C103.486 59.8637 103.486 67.9563 103.486 76.2942C103.26 76.1818 103.034 76.0694 102.801 75.9536C102.838 72.762 102.876 69.5705 102.917 66.379C102.936 64.8972 102.954 63.4154 102.971 61.9336C102.988 60.5047 103.005 59.0759 103.025 57.6471C103.032 57.1007 103.038 56.5544 103.044 56.008C103.052 55.2454 103.062 54.4829 103.073 53.7203C103.078 53.2854 103.084 52.8505 103.089 52.4024C103.143 51.4304 103.143 51.4304 103.486 51.0898Z" fill="white"/>
<path d="M109.654 34.4006C109.767 34.4006 109.88 34.4006 109.997 34.4006C109.997 48.2256 109.997 62.0505 109.997 76.2944C108.301 76.463 108.301 76.463 106.57 76.635C105.864 75.9336 106.085 74.5174 106.035 73.5483C106.02 73.2899 106.005 73.0315 105.99 72.7653C105.953 72.1252 105.919 71.485 105.885 70.8448C106.579 71.9856 106.645 72.844 106.613 74.1656C106.607 74.5011 106.601 74.8365 106.594 75.1821C106.586 75.4367 106.578 75.6914 106.57 75.9538C107.249 75.9538 107.927 75.9538 108.626 75.9538C108.626 75.6166 108.626 75.2794 108.626 74.932C108.965 74.932 109.305 74.932 109.654 74.932C109.654 61.5566 109.654 48.1813 109.654 34.4006Z" fill="white"/>
<path d="M81.1925 36.0703C81.8068 36.0762 81.8068 36.0762 82.4334 36.0823C83.0489 36.0869 83.0489 36.0869 83.6769 36.0916C83.9945 36.0956 84.3121 36.0995 84.6393 36.1036C84.6393 36.216 84.6393 36.3284 84.6393 36.4442C83.3954 36.5566 82.1515 36.669 80.87 36.7848C80.7569 45.2146 80.6438 53.6444 80.5273 62.3297C80.3011 62.3297 80.075 62.3297 79.842 62.3297C79.834 58.9606 79.8279 55.5914 79.8242 52.2222C79.8224 50.6579 79.82 49.0937 79.8161 47.5294C79.8124 46.021 79.8103 44.5127 79.8094 43.0044C79.8088 42.4276 79.8076 41.8508 79.8057 41.2741C79.8032 40.4691 79.8029 39.6641 79.803 38.8591C79.8018 38.6182 79.8006 38.3774 79.7993 38.1293C79.8037 36.1161 79.8037 36.1161 81.1925 36.0703Z" fill="white"/>
<path d="M175.447 117.166C175.56 117.391 175.673 117.616 175.789 117.847C175.676 118.072 175.563 118.297 175.447 118.529C184.154 118.529 192.861 118.529 201.832 118.529C201.719 118.753 201.606 118.978 201.489 119.21C192.669 119.21 183.849 119.21 174.761 119.21C174.987 118.535 175.214 117.861 175.447 117.166Z" fill="white"/>
<path d="M171.87 33.2724C172.133 33.2669 172.396 33.2614 172.667 33.2558C174.593 33.2541 174.593 33.2541 175.456 33.8964C175.621 34.146 175.621 34.146 175.789 34.4006C175.478 34.3444 175.167 34.2882 174.847 34.2303C171.578 33.6527 171.578 33.6527 168.569 34.5563C167.351 35.9448 166.837 37.1463 166.835 38.9975C166.834 39.3069 166.833 39.6163 166.832 39.9351C166.833 40.2693 166.833 40.6035 166.834 40.9479C166.833 41.4666 166.833 41.4666 166.833 41.9957C166.833 42.729 166.833 43.4622 166.835 44.1955C166.837 45.3084 166.835 46.4214 166.833 47.5343C166.833 48.2481 166.833 48.9619 166.834 49.6757C166.833 50.0051 166.833 50.3345 166.832 50.6738C166.839 52.7618 166.973 54.8069 167.222 56.8802C165.116 53.7403 165.713 48.8527 165.706 45.2097C165.702 44.1902 165.685 43.1713 165.667 42.1519C165.664 41.4965 165.662 40.841 165.66 40.1855C165.653 39.8846 165.647 39.5837 165.64 39.2736C165.655 37.1872 166.12 35.6235 167.565 34.06C169.003 33.2208 170.239 33.2656 171.87 33.2724Z" fill="white"/>
<path d="M84.6391 36.4441C85.6671 36.7847 85.6671 36.7847 86.0097 37.4659C86.0447 38.2029 86.0572 38.9411 86.0595 39.679C86.0612 40.0197 86.0612 40.0197 86.063 40.3672C86.0663 41.12 86.0669 41.8727 86.0673 42.6254C86.0684 43.1481 86.0695 43.6708 86.0707 44.1934C86.0728 45.2901 86.0734 46.3867 86.0732 47.4833C86.0732 48.8882 86.0779 50.2931 86.0838 51.6981C86.0876 52.778 86.0883 53.8579 86.0881 54.9379C86.0885 55.4558 86.09 55.9737 86.0927 56.4917C86.096 57.2165 86.095 57.9412 86.093 58.666C86.0935 59.0785 86.0939 59.4909 86.0945 59.9158C86.0136 60.919 85.8543 61.4858 85.3244 62.3296C84.9852 62.2173 84.6459 62.1049 84.2964 61.989C84.5225 61.6519 84.7487 61.3147 84.9817 60.9673C85.084 59.9365 85.084 59.9365 85.065 58.7468C85.0659 58.411 85.0659 58.411 85.0669 58.0684C85.0682 57.3286 85.0645 56.5888 85.0607 55.8489C85.0603 55.3344 85.0601 54.8199 85.0602 54.3053C85.0597 53.2267 85.0568 52.1482 85.0522 51.0697C85.0464 49.688 85.0451 48.3064 85.0454 46.9248C85.0453 45.8621 85.0434 44.7994 85.0409 43.7367C85.0398 43.2273 85.0392 42.718 85.0389 42.2086C85.0382 41.496 85.0352 40.7836 85.0315 40.071C85.0302 39.6657 85.0289 39.2603 85.0275 38.8427C84.9893 37.9772 84.8955 37.2668 84.6391 36.4441Z" fill="white"/>
<path d="M31.0127 80.6887C31.5315 80.6946 31.5315 80.6946 32.0608 80.7007C32.4075 80.7038 32.7543 80.7068 33.1116 80.71C33.5137 80.7159 33.5137 80.7159 33.9241 80.722C33.9326 81.0916 33.9412 81.4613 33.9501 81.8422C33.9823 83.2088 34.0166 84.5754 34.0516 85.942C34.0665 86.5344 34.0808 87.1268 34.0945 87.7192C34.1142 88.5688 34.136 89.4185 34.1583 90.2681C34.164 90.5345 34.1698 90.801 34.1757 91.0755C34.0976 92.3019 34.0976 92.3019 34.6094 93.3242C35.4072 93.4494 36.2069 93.5634 37.0081 93.6648C37.0081 93.8896 37.0081 94.1144 37.0081 94.346C34.8211 94.469 34.8211 94.469 34.0227 94.0049C33.3223 92.9245 33.4559 91.7849 33.481 90.5422C33.4824 90.2714 33.4839 90.0007 33.4854 89.7218C33.4912 88.8576 33.5041 87.9936 33.5171 87.1295C33.5223 86.5434 33.527 85.9574 33.5312 85.3713C33.5425 83.935 33.5603 82.4988 33.5814 81.0626C32.5637 81.0626 31.5459 81.0626 30.4974 81.0626C30.521 82.6746 30.5512 84.2862 30.5873 85.898C30.5987 86.4457 30.6083 86.9934 30.6161 87.5411C30.6276 88.331 30.6456 89.1205 30.6647 89.9102C30.668 90.2743 30.668 90.2743 30.6713 90.6458C30.7181 92.2451 31.1153 93.2899 31.868 94.6866C31.755 94.9114 31.6419 95.1362 31.5254 95.3678C30.0285 93.5702 29.56 92.4683 29.6327 90.155C29.6343 89.8946 29.6359 89.6342 29.6375 89.3658C29.6448 88.542 29.6642 87.719 29.6835 86.8953C29.6892 86.3348 29.6941 85.7742 29.6982 85.2136C29.7492 80.7377 29.7492 80.7377 31.0127 80.6887Z" fill="white"/>
<path d="M107.598 80.7222C109.294 80.7222 110.991 80.7222 112.738 80.7222C112.738 85.8925 112.738 91.0628 112.738 96.3897C109.311 96.3897 109.311 96.3897 108.283 95.7085C107.823 93.5961 107.826 91.4012 107.733 89.2465C107.658 87.6329 107.492 86.0686 107.255 84.4688C107.227 83.859 107.211 83.2484 107.213 82.638C107.212 82.3474 107.211 82.0567 107.21 81.7573C107.255 81.0628 107.255 81.0628 107.598 80.7222ZM107.598 81.0628C107.569 83.1615 107.662 85.194 107.898 87.2787C107.929 87.5582 107.96 87.8376 107.992 88.1255C108.239 92.2857 108.239 92.2857 109.654 96.0491C110.559 96.0491 111.463 96.0491 112.396 96.0491C112.396 91.1036 112.396 86.1581 112.396 81.0628C110.812 81.0628 109.229 81.0628 107.598 81.0628Z" fill="white"/>
<path d="M77.4434 62.3296C77.5564 62.3296 77.6695 62.3296 77.786 62.3296C77.786 66.7131 77.786 71.0966 77.786 75.613C78.4645 75.613 79.143 75.613 79.842 75.613C79.8402 75.2846 79.8385 74.9562 79.8366 74.6179C79.8304 73.4036 79.8265 72.1893 79.8232 70.975C79.8215 70.4487 79.8192 69.9224 79.8162 69.3961C79.8121 68.6412 79.8101 67.8862 79.8086 67.1312C79.8068 66.8946 79.805 66.6579 79.8032 66.4141C79.8032 65.8472 79.8208 65.2803 79.842 64.7138C80.1847 64.3732 80.1847 64.3732 80.9678 64.3399C81.4389 64.3459 81.4389 64.3459 81.9195 64.3519C82.2344 64.355 82.5494 64.358 82.8739 64.3612C83.1172 64.3652 83.3606 64.3691 83.6114 64.3732C83.6114 64.4856 83.6114 64.598 83.6114 64.7138C82.7068 64.8262 81.8021 64.9386 80.87 65.0544C80.757 68.6511 80.6439 72.2478 80.5274 75.9536C79.5097 75.9536 78.4919 75.9536 77.4434 75.9536C77.4434 71.4577 77.4434 66.9617 77.4434 62.3296Z" fill="white"/>
<path d="M39.0752 66.031C39.3543 66.0319 39.6335 66.0328 39.9211 66.0337C40.2003 66.0328 40.4795 66.0319 40.7671 66.031C41.4631 66.0762 41.4631 66.0762 41.8058 66.4168C41.8401 67.1435 41.8506 67.8713 41.8513 68.5988C41.8518 69.0418 41.8522 69.4848 41.8527 69.9412C41.8516 70.2891 41.8516 70.2891 41.8505 70.6439C41.8487 71.3526 41.8505 72.0612 41.8527 72.7698C41.8522 73.2128 41.8518 73.6558 41.8513 74.1123C41.8509 74.5221 41.8506 74.932 41.8502 75.3543C41.8058 76.2942 41.8058 76.2942 41.4631 76.6348C40.8854 76.6594 40.3066 76.6634 39.7284 76.6561C39.4134 76.653 39.0985 76.65 38.774 76.6468C38.5306 76.6428 38.2872 76.6389 38.0365 76.6348C38.028 75.1859 38.0218 73.7369 38.0176 72.2879C38.0159 71.7947 38.0136 71.3014 38.0106 70.8081C38.0065 70.1005 38.0045 69.3929 38.003 68.6853C38.0012 68.259 37.9994 67.8327 37.9976 67.3935C38.0492 66.0977 38.0492 66.0977 39.0752 66.031ZM38.7218 66.7574C38.7218 69.7922 38.7218 72.8269 38.7218 75.9536C39.6264 75.9536 40.5311 75.9536 41.4631 75.9536C41.4631 72.9189 41.4631 69.8841 41.4631 66.7574C40.5585 66.7574 39.6539 66.7574 38.7218 66.7574Z" fill="white"/>
<path d="M148.131 36.4109C148.602 36.4168 148.602 36.4168 149.082 36.4229C149.397 36.4259 149.712 36.429 150.037 36.4322C150.28 36.4361 150.524 36.4401 150.774 36.4442C150.887 36.6689 151.001 36.8937 151.117 37.1253C149.986 37.1253 148.855 37.1253 147.69 37.1253C147.69 45.3304 147.69 53.5354 147.69 61.9891C149.047 62.1577 149.047 62.1577 150.432 62.3297C150.432 62.4421 150.432 62.5545 150.432 62.6703C149.925 62.6795 149.418 62.6861 148.911 62.6916C148.488 62.6975 148.488 62.6975 148.056 62.7036C147.348 62.6703 147.348 62.6703 147.005 62.3297C146.971 61.5337 146.958 60.7477 146.961 59.9515C146.96 59.7028 146.959 59.4542 146.959 59.198C146.957 58.3721 146.958 57.5463 146.959 56.7205C146.959 56.149 146.959 55.5776 146.958 55.0062C146.958 53.807 146.959 52.6079 146.96 51.4087C146.962 49.8682 146.961 48.3276 146.959 46.787C146.958 45.6066 146.958 44.4262 146.959 43.2458C146.959 42.6776 146.959 42.1094 146.958 41.5412C146.957 40.7484 146.959 39.9557 146.961 39.163C146.96 38.9259 146.959 38.6887 146.959 38.4445C146.967 36.4603 146.967 36.4603 148.131 36.4109Z" fill="white"/>
<path d="M104.514 35.0818C105.551 36.1122 105.441 37.3518 105.564 38.7432C105.592 39.0408 105.62 39.3384 105.649 39.645C105.961 43.1127 106.104 46.5895 106.228 50.0682C106.454 50.0682 106.68 50.0682 106.913 50.0682C107.145 54.2731 107.309 58.4585 107.256 62.6703C107.142 62.6703 107.029 62.6703 106.913 62.6703C106.883 62.3146 106.854 61.9588 106.824 61.5922C106.715 60.2725 106.604 58.9529 106.492 57.6333C106.444 57.0621 106.397 56.4909 106.35 55.9196C106.282 55.0986 106.213 54.2777 106.143 53.4569C106.112 53.0736 106.112 53.0736 106.08 52.6827C105.99 51.6371 105.877 50.7274 105.542 49.7276C105.472 49.1178 105.417 48.5062 105.371 47.8942C105.343 47.5271 105.315 47.16 105.286 46.7817C105.243 46.1957 105.243 46.1957 105.199 45.5978C105.17 45.2014 105.14 44.805 105.109 44.3966C104.88 41.2933 104.68 38.189 104.514 35.0818Z" fill="white"/>
<path d="M102.458 49.7275C103.023 49.7275 103.589 49.7275 104.171 49.7275C104.284 50.1771 104.398 50.6267 104.514 51.0899C104.175 51.2023 103.836 51.3147 103.486 51.4305C103.219 52.8492 103.094 54.2021 103.073 55.6446C103.066 56.0673 103.059 56.4899 103.052 56.9253C103.046 57.3812 103.041 57.8372 103.035 58.2931C103.028 58.7636 103.021 59.2341 103.013 59.7047C102.995 60.9376 102.978 62.1706 102.961 63.4036C102.944 64.6639 102.925 65.9243 102.906 67.1846C102.869 69.6535 102.834 72.1224 102.801 74.5913C102.688 74.5913 102.575 74.5913 102.458 74.5913C102.458 66.3863 102.458 58.1812 102.458 49.7275Z" fill="white"/>
<path d="M170.307 36.7847C170.701 37.5686 170.687 37.9942 170.677 38.8649C170.675 39.1538 170.673 39.4428 170.671 39.7406C170.667 40.0542 170.663 40.3678 170.659 40.6909C170.654 41.3562 170.65 42.0214 170.646 42.6866C170.638 43.7344 170.628 44.7821 170.616 45.8298C170.606 46.8417 170.6 47.8534 170.594 48.8653C170.59 49.1734 170.585 49.4815 170.58 49.7989C170.573 51.6667 170.778 53.3556 171.22 55.1728C171.335 55.8582 171.335 55.8582 170.992 56.5394C169.211 52.2294 169.587 47.4118 169.557 42.8303C169.553 42.3922 169.548 41.9542 169.543 41.5028C169.543 41.0891 169.543 40.6754 169.542 40.2492C169.541 39.8772 169.54 39.5052 169.538 39.122C169.62 38.1603 169.806 37.6003 170.307 36.7847Z" fill="white"/>
<path d="M41.4629 81.0627C41.576 81.0627 41.6891 81.0627 41.8056 81.0627C41.831 82.8263 41.8497 84.5897 41.862 86.3534C41.8672 86.953 41.8742 87.5526 41.8831 88.1522C41.8956 89.0155 41.9014 89.8786 41.906 90.7419C41.9113 91.0088 41.9166 91.2756 41.922 91.5506C41.9226 93.462 41.4964 94.491 40.3064 95.9427C38.9349 97.0437 37.5247 97.164 35.8089 97.1561C35.4307 97.1578 35.0526 97.1596 34.6631 97.1614C33.5939 97.072 32.8334 96.8408 31.8682 96.3897C31.9812 96.1649 32.0943 95.9401 32.2108 95.7085C32.5772 95.7882 32.5772 95.7882 32.9511 95.8695C35.2712 96.3382 37.0894 96.5618 39.3426 95.6659C40.3704 94.7904 40.5079 93.9346 40.7776 92.6431C41.0037 92.6431 41.2299 92.6431 41.4629 92.6431C41.4629 88.8216 41.4629 85.0001 41.4629 81.0627Z" fill="white"/>
<path d="M153.516 63.011C153.742 63.011 153.968 63.011 154.201 63.011C154.201 63.2358 154.201 63.4606 154.201 63.6922C154.427 63.6922 154.653 63.6922 154.886 63.6922C155.818 66.4745 156.055 68.9881 156 71.9091C155.998 72.2955 155.996 72.6819 155.995 73.08C155.967 75.901 155.967 75.901 155.572 76.2944C154.937 76.319 154.301 76.3229 153.666 76.3157C153.319 76.3126 152.972 76.3095 152.615 76.3063C152.347 76.3024 152.078 76.2984 151.802 76.2944C151.802 76.182 151.802 76.0696 151.802 75.9538C152.933 75.9538 154.064 75.9538 155.229 75.9538C155.229 72.6942 155.229 69.4347 155.229 66.0764C155.003 66.0764 154.777 66.0764 154.544 66.0764C154.317 65.5144 154.091 64.9524 153.858 64.3734C153.632 64.3734 153.406 64.3734 153.173 64.3734C153.286 63.9238 153.399 63.4742 153.516 63.011Z" fill="white"/>
<path d="M150.774 36.4441C151.227 36.4441 151.679 36.4441 152.145 36.4441C152.145 44.9863 152.145 53.5286 152.145 62.3296C151.297 62.4982 151.297 62.4982 150.432 62.6702C150.598 62.4944 150.765 62.3186 150.936 62.1375C151.637 61.0265 151.596 60.2407 151.608 58.9333C151.611 58.6972 151.615 58.4612 151.618 58.218C151.629 57.4402 151.632 56.6627 151.635 55.8849C151.641 55.3446 151.647 54.8044 151.654 54.2642C151.67 52.8442 151.68 51.4242 151.689 50.0042C151.699 48.5544 151.715 47.1047 151.731 45.6549C151.76 42.8117 151.783 39.9686 151.802 37.1253C151.463 37.0129 151.124 36.9005 150.774 36.7847C150.774 36.6723 150.774 36.5599 150.774 36.4441Z" fill="white"/>
<path d="M174.761 81.0625C176.869 81.0293 176.869 81.0293 177.503 81.0625C178.357 81.9122 177.905 84.0155 177.909 85.2076C177.909 85.5866 177.909 85.5866 177.909 85.9732C177.909 86.7372 177.916 87.5011 177.922 88.265C177.923 88.7535 177.924 89.242 177.924 89.7305C177.926 90.1743 177.927 90.618 177.928 91.0752C177.847 92.2826 177.6 93.2232 177.16 94.3459C177.047 94.3459 176.934 94.3459 176.817 94.3459C176.93 90.0748 177.043 85.8037 177.16 81.4031C176.368 81.4031 175.577 81.4031 174.761 81.4031C174.761 81.2907 174.761 81.1783 174.761 81.0625Z" fill="white"/>
<path d="M128.158 61.6485C128.722 61.6393 129.286 61.6327 129.85 61.6272C130.164 61.6233 130.478 61.6193 130.802 61.6152C131.585 61.6485 131.585 61.6485 131.928 61.9891C131.97 63.1812 131.97 63.1812 131.928 64.3733C131.025 65.2708 129.429 64.9282 128.158 65.0545C128.045 68.6512 127.932 72.248 127.816 75.9537C127.703 75.9537 127.589 75.9537 127.473 75.9537C127.464 74.3654 127.458 72.7772 127.454 71.1889C127.452 70.6484 127.45 70.1079 127.447 69.5674C127.443 68.7913 127.441 68.0152 127.439 67.2391C127.438 66.9968 127.436 66.7544 127.434 66.5048C127.434 64.7915 127.434 64.7915 127.816 64.0327C128.946 64.0327 130.077 64.0327 131.242 64.0327C131.242 63.3583 131.242 62.6839 131.242 61.9891C130.225 61.9891 129.207 61.9891 128.158 61.9891C128.158 61.8767 128.158 61.7643 128.158 61.6485Z" fill="white"/>
<path d="M124.731 33.3787C127.445 33.3787 130.159 33.3787 132.955 33.3787C132.955 34.2778 132.955 35.177 132.955 36.1035C132.613 36.4441 132.613 36.4441 131.53 36.4773C130.868 36.4714 130.868 36.4714 130.193 36.4653C129.751 36.4623 129.308 36.4592 128.853 36.456C128.511 36.4521 128.168 36.4481 127.815 36.4441C127.929 36.2193 128.042 35.9945 128.158 35.7629C129.515 35.7629 130.872 35.7629 132.27 35.7629C132.27 35.2009 132.27 34.6389 132.27 34.0599C131.927 34.0638 131.584 34.0678 131.23 34.0718C130.77 34.075 130.31 34.0781 129.85 34.0811C129.176 34.0871 129.176 34.0871 128.489 34.0931C127.193 34.0614 126.006 33.9286 124.731 33.7193C124.731 33.6069 124.731 33.4945 124.731 33.3787Z" fill="white"/>
<path d="M107.598 62.6704C108.587 64.276 108.573 66.1083 108.776 67.9391C108.896 69.0904 108.896 69.0904 109.33 69.839C109.812 70.8275 109.719 71.7153 109.697 72.8032C109.691 73.2019 109.685 73.6006 109.678 74.0113C109.67 74.3151 109.662 74.619 109.654 74.932C109.315 74.932 108.976 74.932 108.626 74.932C108.609 74.6431 108.593 74.3542 108.575 74.0565C108.437 71.8994 108.248 69.7891 107.919 67.6517C107.661 65.9613 107.529 64.3774 107.598 62.6704Z" fill="white"/>
<path d="M56.8829 81.4033C56.996 81.4033 57.109 81.4033 57.2255 81.4033C57.2323 81.7264 57.2391 82.0494 57.2461 82.3822C57.2729 83.5833 57.3026 84.7842 57.3343 85.9851C57.3474 86.5044 57.3593 87.0237 57.3701 87.5431C57.3858 88.2906 57.4057 89.0379 57.4263 89.7853C57.4303 90.0166 57.4342 90.248 57.4383 90.4864C57.4761 91.698 57.5462 92.6536 58.2535 93.6649C59.1712 93.9506 60.0264 93.9434 60.9949 94.0055C61.108 93.6683 61.2211 93.3311 61.3376 92.9837C61.4506 93.4333 61.5637 93.8829 61.6802 94.3461C60.9449 94.3552 60.2096 94.3619 59.4743 94.3674C59.0648 94.3713 58.6554 94.3753 58.2335 94.3794C57.2255 94.3461 57.2255 94.3461 56.8829 94.0055C56.8525 93.0726 56.8434 92.1484 56.8494 91.2155C56.8499 90.9363 56.8504 90.657 56.8509 90.3693C56.8528 89.4739 56.8571 88.5785 56.8615 87.6831C56.8632 87.0775 56.8647 86.472 56.8661 85.8664C56.8699 84.3787 56.8758 82.891 56.8829 81.4033Z" fill="white"/>
<path d="M87.3804 64.3733C88.3956 65.2068 88.5627 65.8208 88.7511 67.0981C88.7783 67.8237 88.788 68.55 88.7846 69.2761C88.7835 69.6855 88.7824 70.0949 88.7812 70.5167C88.7784 70.9411 88.7755 71.3654 88.7725 71.8026C88.771 72.2335 88.7694 72.6645 88.7678 73.1085C88.7638 74.1704 88.7582 75.2323 88.7511 76.2943C87.8465 76.2943 86.9418 76.2943 86.0098 76.2943C86.0098 76.1819 86.0098 76.0695 86.0098 75.9537C86.8013 75.9537 87.5929 75.9537 88.4084 75.9537C88.3186 74.5781 88.2272 73.2026 88.1345 71.8271C88.1032 71.3597 88.0723 70.8923 88.0418 70.4248C87.9977 69.7509 87.9521 69.0771 87.9065 68.4033C87.8796 67.9984 87.8527 67.5935 87.8249 67.1763C87.7362 66.2178 87.5928 65.3112 87.3804 64.3733Z" fill="white"/>
<path d="M103.829 34.0601C105.019 35.8351 105.022 37.7474 105.221 39.829C105.252 40.1474 105.282 40.4658 105.314 40.7938C105.534 43.2135 105.624 45.5945 105.542 48.0246C105.429 48.0246 105.316 48.0246 105.2 48.0246C104.782 44.9253 104.431 41.8482 104.256 38.7247C104.229 37.8177 104.229 37.8177 103.829 37.1255C103.805 36.6008 103.8 36.0753 103.807 35.5502C103.811 35.2718 103.814 34.9935 103.817 34.7067C103.821 34.4933 103.825 34.2799 103.829 34.0601Z" fill="white"/>
<path d="M143.921 33.3787C145.063 33.3487 146.205 33.3308 147.348 33.3149C147.668 33.3063 147.988 33.2978 148.318 33.2889C150.417 33.267 151.952 33.5091 153.858 34.4005C154.886 35.4543 154.886 35.4543 154.886 36.4441C153.858 36.1035 153.858 36.1035 153.173 35.0817C152.38 34.8328 151.58 34.6044 150.774 34.4005C150.661 34.2881 150.548 34.1757 150.432 34.0599C149.947 34.0067 149.461 33.9746 148.974 33.9522C148.681 33.9379 148.389 33.9236 148.087 33.9089C147.779 33.8955 147.472 33.8821 147.155 33.8684C146.846 33.8536 146.537 33.8389 146.219 33.8238C145.453 33.7875 144.687 33.7528 143.921 33.7193C143.921 33.6069 143.921 33.4945 143.921 33.3787Z" fill="white"/>
<path d="M62.7312 80.6887C63.1546 80.6946 63.1546 80.6946 63.5865 80.7007C63.8697 80.7038 64.1528 80.7068 64.4445 80.71C64.6632 80.714 64.8818 80.7179 65.1071 80.722C65.1071 80.8344 65.1071 80.9468 65.1071 81.0626C64.3155 81.175 63.524 81.2874 62.7084 81.4032C62.4099 83.7944 62.2662 86.1699 62.173 88.5771C62.1582 88.9369 62.1434 89.2967 62.1282 89.6674C62.0922 90.5457 62.0572 91.424 62.0231 92.3024C61.91 92.3024 61.7969 92.3024 61.6804 92.3024C61.672 90.7079 61.6657 89.1134 61.6616 87.5189C61.6599 86.9761 61.6575 86.4333 61.6546 85.8904C61.6504 85.1118 61.6485 84.3332 61.647 83.5545C61.6452 83.3104 61.6434 83.0663 61.6416 82.8149C61.6415 82.2306 61.6592 81.6464 61.6804 81.0626C62.0231 80.722 62.0231 80.722 62.7312 80.6887Z" fill="white"/>
<path d="M105.885 70.8447C106.579 71.9855 106.645 72.8439 106.613 74.1656C106.607 74.501 106.601 74.8364 106.594 75.182C106.586 75.4367 106.578 75.6914 106.57 75.9537C107.249 75.9537 107.927 75.9537 108.626 75.9537C108.626 75.6165 108.626 75.2793 108.626 74.9319C108.965 74.9319 109.305 74.9319 109.654 74.9319C109.767 74.5947 109.88 74.2575 109.997 73.9101C109.997 74.6969 109.997 75.4837 109.997 76.2943C109.433 76.3604 108.869 76.4238 108.305 76.4859C107.991 76.5215 107.677 76.557 107.353 76.5937C106.966 76.6141 106.966 76.6141 106.57 76.6349C105.864 75.9335 106.085 74.5174 106.035 73.5482C106.02 73.2899 106.005 73.0315 105.99 72.7653C105.953 72.1252 105.919 71.485 105.885 70.8447Z" fill="white" fill-opacity="0.552941"/>
<path d="M80.9674 64.3401C81.4385 64.346 81.4385 64.346 81.9191 64.3521C82.234 64.3551 82.549 64.3582 82.8735 64.3614C83.1169 64.3653 83.3602 64.3693 83.611 64.3733C83.611 64.4857 83.611 64.5981 83.611 64.7139C82.7064 64.8263 81.8017 64.9387 80.8697 65.0545C80.7566 68.6513 80.6435 72.248 80.527 75.9537C80.4139 75.9537 80.3008 75.9537 80.1843 75.9537C80.127 74.3593 80.072 72.7649 80.0191 71.1703C80.0008 70.6274 79.9818 70.0846 79.9622 69.5418C79.9342 68.7632 79.9084 67.9846 79.8831 67.2059C79.8739 66.9618 79.8646 66.7177 79.8551 66.4662C79.8372 65.8824 79.8376 65.298 79.8417 64.7139C80.1843 64.3733 80.1843 64.3733 80.9674 64.3401Z" fill="white"/>
<path d="M65.107 81.0627C65.2201 81.0627 65.3332 81.0627 65.4497 81.0627C65.4753 82.5588 65.4938 84.0548 65.5061 85.551C65.5113 86.0587 65.5183 86.5664 65.5272 87.074C65.6193 92.4247 65.6193 92.4247 64.4217 95.0273C64.0824 95.1959 64.0824 95.1959 63.7363 95.3679C63.8418 94.7503 63.9492 94.133 64.0576 93.5159C64.147 93.0002 64.147 93.0002 64.2383 92.4742C64.4217 91.6213 64.4217 91.6213 64.7643 91.2807C64.8187 90.5257 64.8505 89.769 64.8728 89.0123C64.8799 88.786 64.887 88.5596 64.8943 88.3265C64.9168 87.6012 64.937 86.8758 64.9571 86.1504C64.9719 85.6597 64.9868 85.169 65.0019 84.6783C65.0387 83.4732 65.0734 82.268 65.107 81.0627Z" fill="white"/>
<path d="M172.02 58.583C172.791 59.4987 173.35 60.1656 173.733 61.3078C173.959 61.3078 174.185 61.3078 174.418 61.3078C174.517 61.638 174.616 61.9681 174.718 62.3083C174.981 63.3877 174.981 63.3877 175.789 63.692C175.992 64.5941 176.043 65.4944 176.132 66.4168C175.545 65.5422 175 64.6596 174.461 63.7559C173.864 62.7564 173.257 61.7844 172.576 60.8395C172.02 59.9454 172.02 59.9454 172.02 58.583Z" fill="white"/>
<path d="M38.379 81.0627C38.4921 81.0627 38.6051 81.0627 38.7216 81.0627C38.7386 82.7418 38.751 84.4207 38.7593 86.0998C38.7627 86.671 38.7674 87.2422 38.7733 87.8134C38.7817 88.6344 38.7855 89.4553 38.7886 90.2762C38.7921 90.5317 38.7956 90.7872 38.7993 91.0504C38.7996 92.3376 38.7732 92.9068 38.0363 94.0055C37.6971 93.8931 37.3578 93.7807 37.0083 93.6649C37.1743 93.4936 37.3403 93.3222 37.5113 93.1457C38.2133 92.0182 38.1999 90.9983 38.2117 89.7108C38.2209 89.3395 38.2209 89.3395 38.2303 88.9606C38.2488 88.1729 38.2604 87.3853 38.2719 86.5975C38.2833 86.0622 38.2951 85.5269 38.3074 84.9916C38.3364 83.682 38.3593 82.3725 38.379 81.0627Z" fill="white"/>
<path d="M55.5122 95.3679C55.7808 95.4803 56.0493 95.5927 56.326 95.7085C58.8833 96.4097 61.2254 96.1074 63.7363 95.3679C62.4856 96.6524 61.8773 97.1231 60.074 97.1561C58.4075 97.1417 57.3097 96.8491 55.8549 96.0491C55.7418 95.8243 55.6287 95.5995 55.5122 95.3679Z" fill="white"/>
<path d="M107.256 70.1636C108.085 71.4006 108.013 71.9972 107.984 73.4631C107.978 73.8649 107.971 74.2666 107.965 74.6805C107.953 75.1422 107.953 75.1422 107.941 75.6132C107.602 75.6132 107.262 75.6132 106.913 75.6132C106.904 74.8326 106.897 74.0521 106.891 73.2715C106.887 72.8369 106.883 72.4022 106.879 71.9544C106.913 70.8448 106.913 70.8448 107.256 70.1636Z" fill="white"/>
<path d="M172.02 66.417C172.111 66.6348 172.203 66.8525 172.298 67.0769C172.666 67.8922 172.666 67.8922 173.733 68.12C174.135 70.6192 174.108 73.0865 174.076 75.6132C173.962 75.6132 173.849 75.6132 173.733 75.6132C173.72 75.3252 173.707 75.0371 173.694 74.7404C173.559 72.4188 173.267 70.5963 172.362 68.4606C172.228 67.7829 172.106 67.1023 172.02 66.417Z" fill="white"/>
<path d="M174.076 32.6975C175.318 32.953 175.318 32.953 176.132 33.3787C176.432 34.1025 176.432 34.1025 176.474 34.7411C176.25 34.5774 176.026 34.4136 175.796 34.2449C174.473 33.5729 173.377 33.5307 171.913 33.4852C171.659 33.4736 171.405 33.4619 171.144 33.4499C170.522 33.422 169.9 33.3998 169.278 33.3787C170.812 32.3625 172.278 32.5752 174.076 32.6975Z" fill="white"/>
<path d="M80.5273 62.3296C81.6582 62.442 82.789 62.5544 83.954 62.6702C83.4452 63.176 83.4452 63.176 82.926 63.692C83.1522 63.9168 83.3783 64.1416 83.6114 64.3732C82.7067 64.3732 81.8021 64.3732 80.87 64.3732C80.7569 63.6988 80.6439 63.0244 80.5273 62.3296Z" fill="white"/>
<path d="M81.1926 36.0703C81.8068 36.0762 81.8068 36.0762 82.4334 36.0823C83.049 36.0869 83.049 36.0869 83.677 36.0916C83.9946 36.0956 84.3122 36.0995 84.6394 36.1036C84.6394 36.216 84.6394 36.3284 84.6394 36.4442C84.3713 36.4648 84.1031 36.4854 83.8269 36.5067C83.4801 36.5352 83.1334 36.5638 82.7761 36.5932C82.4302 36.6208 82.0844 36.6485 81.728 36.677C80.8918 36.6935 80.8918 36.6935 80.5273 37.1254C80.4469 37.8689 80.3856 38.6145 80.3346 39.3606C80.3059 39.7684 80.2772 40.1763 80.2476 40.5966C80.2268 40.9122 80.2061 41.2279 80.1847 41.5532C80.0716 41.5532 79.9585 41.5532 79.842 41.5532C79.8328 40.7087 79.826 39.8644 79.8206 39.02C79.8163 38.6587 79.8163 38.6587 79.8119 38.2902C79.8089 37.6748 79.8241 37.0593 79.842 36.4442C80.1847 36.1036 80.1847 36.1036 81.1926 36.0703Z" fill="white"/>
<path d="M169.964 50.0681C170.077 50.0681 170.19 50.0681 170.307 50.0681C170.488 51.0185 170.666 51.9693 170.842 52.9206C170.894 53.1911 170.946 53.4615 170.999 53.7402C171.373 55.7811 171.373 55.7811 170.992 56.5395C170.09 54.3312 169.829 52.4444 169.964 50.0681Z" fill="white"/>
<path d="M87.3804 64.3733C88.0606 64.9309 88.3804 65.2251 88.5251 66.1051C88.5197 66.3709 88.5143 66.6367 88.5088 66.9105C88.5055 67.1992 88.5021 67.4878 88.4987 67.7853C88.4901 68.0854 88.4815 68.3855 88.4726 68.6946C88.4657 69.1507 88.4657 69.1507 88.4586 69.616C88.4465 70.3664 88.4296 71.1163 88.4084 71.8665C88.2953 71.8665 88.1822 71.8665 88.0657 71.8665C88.0346 71.2691 88.0346 71.2691 88.0028 70.6597C87.9739 70.1324 87.9449 69.6051 87.9158 69.0778C87.9023 68.8159 87.8888 68.554 87.875 68.2842C87.8001 66.9508 87.6933 65.6774 87.3804 64.3733Z" fill="white"/>
<path d="M169.278 61.989C169.964 62.4573 169.964 62.4573 170.649 63.0108C170.649 63.2356 170.649 63.4604 170.649 63.692C170.875 63.692 171.101 63.692 171.334 63.692C171.334 64.0292 171.334 64.3664 171.334 64.7138C171.56 64.7138 171.787 64.7138 172.02 64.7138C172.02 65.2758 172.02 65.8378 172.02 66.4168C170.992 65.1396 170.992 65.1396 170.992 64.3732C170.652 64.2608 170.313 64.1484 169.964 64.0326C169.557 62.9895 169.557 62.9895 169.278 61.989Z" fill="white"/>
<path d="M179.559 114.101C179.785 114.213 180.011 114.326 180.244 114.441C180.05 114.63 179.856 114.819 179.656 115.014C179.405 115.26 179.154 115.507 178.895 115.761C178.644 116.006 178.394 116.251 178.136 116.504C177.483 117.122 177.483 117.122 177.16 117.847C176.934 117.847 176.708 117.847 176.475 117.847C177.185 116.258 178.099 115.068 179.559 114.101Z" fill="white"/>
<path d="M199.433 93.6648C200.354 93.5584 200.354 93.5584 201.146 93.6648C200.748 94.4575 200.304 94.8184 199.626 95.3891C199.414 95.5686 199.203 95.7482 198.985 95.9332C198.405 96.3896 198.405 96.3896 197.72 96.7302C197.941 96.2727 198.172 95.8195 198.405 95.3678C198.628 94.9041 198.628 94.9041 198.855 94.4311C199.046 94.1782 199.236 93.9253 199.433 93.6648Z" fill="white"/>
<path d="M85.6671 56.5396C85.7801 56.5396 85.8932 56.5396 86.0097 56.5396C86.0283 57.249 86.0416 57.9587 86.0526 58.6683C86.0605 59.0634 86.0685 59.4586 86.0767 59.8657C86.0133 60.9087 85.8755 61.4585 85.3244 62.3297C84.9852 62.2173 84.6459 62.1049 84.2964 61.9891C84.4611 61.8083 84.6259 61.6274 84.7957 61.441C85.4559 60.4242 85.4943 59.6991 85.56 58.498C85.5825 58.1309 85.605 57.7639 85.6282 57.3857C85.6411 57.1065 85.6539 56.8273 85.6671 56.5396Z" fill="white"/>
<path d="M169.621 33.3787C170.457 33.3511 171.291 33.3308 172.127 33.3148C172.482 33.302 172.482 33.302 172.844 33.2889C173.536 33.2789 173.536 33.2789 174.761 33.3787C175.1 33.7159 175.44 34.0531 175.789 34.4005C173.754 34.1757 171.718 33.9509 169.621 33.7193C169.621 33.6069 169.621 33.4945 169.621 33.3787Z" fill="white"/>
<path d="M200.461 92.6431C200.8 92.6431 201.14 92.6431 201.489 92.6431C201.489 94.2166 201.489 95.7902 201.489 97.4115C201.376 97.4115 201.263 97.4115 201.147 97.4115C201.147 96.1751 201.147 94.9387 201.147 93.6649C200.694 93.5525 200.242 93.4401 199.776 93.3243C200.002 93.0995 200.228 92.8747 200.461 92.6431Z" fill="white"/>
<path d="M172.02 58.583C173.08 59.7781 173.644 60.7942 174.076 62.3296C172.703 61.1406 172.147 60.4054 172.02 58.583Z" fill="white"/>
<path d="M108.626 70.5042C108.739 70.5042 108.852 70.5042 108.969 70.5042C108.969 71.5157 108.969 72.5273 108.969 73.5695C109.195 73.5695 109.421 73.5695 109.654 73.5695C109.654 74.0191 109.654 74.4687 109.654 74.9319C109.315 74.9319 108.975 74.9319 108.626 74.9319C108.626 73.4708 108.626 72.0096 108.626 70.5042Z" fill="white"/>
<path d="M102.801 50.0681C103.253 50.1805 103.705 50.2929 104.171 50.4087C104.171 50.6335 104.171 50.8583 104.171 51.0899C103.832 51.2585 103.832 51.2585 103.486 51.4305C103.261 52.4623 103.261 52.4623 103.143 53.4741C103.03 53.4741 102.917 53.4741 102.801 53.4741C102.801 52.3501 102.801 51.2262 102.801 50.0681Z" fill="white"/>
<path d="M153.516 63.011C153.742 63.011 153.968 63.011 154.201 63.011C154.201 63.2358 154.201 63.4606 154.201 63.6922C154.427 63.6922 154.653 63.6922 154.886 63.6922C154.886 64.0294 154.886 64.3666 154.886 64.714C154.321 64.6016 153.755 64.4892 153.173 64.3734C153.286 63.9238 153.399 63.4742 153.516 63.011Z" fill="white"/>
</g>
<defs>
<clipPath id="clip0_229_948">
<rect width="208" height="125" fill="white"/>
</clipPath>
</defs>
</svg>
