<svg width="311" height="85" viewBox="0 0 311 85" fill="none" xmlns="http://www.w3.org/2000/svg">
<g clip-path="url(#clip0_227_639)">
<path d="M102.178 28.0759C102.178 28.3685 102.178 28.6612 102.178 28.9627C102.482 28.9993 102.785 29.0359 103.098 29.0736C104.832 29.5141 106.024 30.2025 107.527 31.1798C107.748 31.8382 107.748 31.8382 107.973 32.51C109.012 33.6819 109.585 34.227 111.093 34.7271C111.313 35.3856 111.313 35.3856 111.538 36.0573C112.252 36.6488 112.252 36.6488 113.098 37.1659C114.609 38.1266 114.609 38.1266 115.104 39.6046C115.818 40.1961 115.818 40.1961 116.664 40.7132C118.175 41.6739 118.175 41.6739 118.67 43.1519C119.709 44.3239 120.282 44.8689 121.79 45.369C122.095 45.9561 122.391 46.5481 122.682 47.1427C122.994 47.4536 123.307 47.7645 123.629 48.0849C124.464 48.9163 124.464 48.9163 124.464 49.8031C124.906 49.8031 125.347 49.8031 125.802 49.8031C128.03 52.1749 128.03 52.1749 128.03 53.3504C128.471 53.3504 128.913 53.3504 129.367 53.3504C131.596 55.7222 131.596 55.7222 131.596 56.8977C132.037 56.8977 132.479 56.8977 132.933 56.8977C133.08 57.1904 133.227 57.4831 133.379 57.7846C135.811 59.0792 137.782 59.3103 140.51 59.2534C140.853 59.2548 141.195 59.2562 141.548 59.2577C143.737 59.2373 145.566 58.9174 147.642 58.228C147.642 57.9353 148.284 58.1106 148.284 57.8091C149.342 56.6451 148.255 57.5633 149.425 56.5102C149.719 56.5102 150.459 55.1241 150.762 55.1241C152.51 51.2122 152.222 47.3459 152.099 43.1519C151.805 43.1519 151.511 43.1519 151.208 43.1519C151.18 42.7312 151.153 42.3106 151.124 41.8771C150.945 41.1912 150.945 41.1912 150.762 40.4915C149.688 39.9385 149.688 39.9385 148.534 39.6046C148.092 38.9462 148.092 38.9462 147.642 38.2744C145.226 36.9686 143.23 36.737 140.51 36.7779C140.168 36.7727 139.826 36.7676 139.473 36.7623C136.575 36.777 134.436 37.3478 132.209 39.2998C131.467 40.1347 130.744 40.9863 130.036 41.8494C128.979 43.0853 128.076 44.0654 126.693 44.9256C125.607 45.0087 125.607 45.0087 124.464 44.4822C123.75 43.7579 123.119 42.9958 122.485 42.201C121.482 41.0138 120.339 40.1175 119.116 39.1612C119.304 36.9804 120.217 36.1879 121.79 34.7271C122.222 34.2136 122.649 33.696 123.072 33.1751C124.694 31.2653 126.506 29.7638 128.922 28.9627C129.106 28.7615 129.289 28.5603 129.479 28.353C132.466 25.5933 136.934 25.7827 140.761 25.8034C141.08 25.8017 141.4 25.8 141.728 25.7982C143.744 25.8018 145.654 25.9747 147.642 26.3022C147.642 26.5949 147.642 26.8875 147.642 27.1891C148.212 27.2531 148.782 27.3171 149.369 27.383C150.431 27.5023 151.139 27.598 152.099 28.0759C152.099 28.5149 152.099 28.9538 152.099 29.4061C152.568 29.4198 152.568 29.4198 153.046 29.4338C154.707 29.9726 155.281 30.8352 156.342 32.1705C157.028 33.0416 157.028 33.0416 158.2 33.868C159.447 34.907 159.952 35.9028 160.568 37.3876C160.568 37.6802 160.568 37.9729 160.568 38.2744C160.862 38.2744 161.156 38.2744 161.46 38.2744C163.611 43.4597 163.291 50.1091 162.351 55.5675C161.888 56.5981 161.888 56.5981 161.46 57.3412C161.018 57.3412 160.577 57.3412 160.122 57.3412C160.086 57.8167 160.049 58.2923 160.011 58.7823C159.652 60.5685 159.328 61.1377 157.894 62.2187C157.6 62.2187 157.305 62.2187 157.002 62.2187C156.975 62.4748 156.947 62.7309 156.919 62.9947C156.404 64.4123 155.569 64.9429 154.328 65.766C153.887 65.766 153.445 65.766 152.991 65.766C152.991 66.205 152.991 66.644 152.991 67.0963C151.614 67.8787 151.104 67.9831 149.425 67.9831C149.425 68.2757 149.425 68.5684 149.425 68.8699C147.954 69.1626 146.483 69.4552 144.968 69.7567C144.968 70.0494 144.968 70.342 144.968 70.6436C142.32 70.6436 139.673 70.6436 136.945 70.6436C136.945 70.3509 136.945 70.0583 136.945 69.7567C136.605 69.7133 136.266 69.6699 135.916 69.6251C131.335 68.9651 128.23 68.1982 125.356 64.4358C124.552 63.7119 123.726 63.0284 122.884 62.3503C122.236 61.7753 122.236 61.7753 121.79 60.8885C121.128 60.669 121.128 60.669 120.453 60.4451C120.148 59.8577 119.851 59.2662 119.561 58.6714C118.9 58.2324 118.9 58.2324 118.224 57.7846C118.224 57.4919 118.224 57.1993 118.224 56.8977C117.783 56.8977 117.342 56.8977 116.887 56.8977C116.777 56.6417 116.667 56.3856 116.553 56.1218C115.913 54.9762 115.17 54.2471 114.213 53.3504C113.909 53.0395 113.606 52.7286 113.293 52.4082C112.404 51.502 112.404 51.502 111.093 50.69C111.093 50.3973 111.093 50.1047 111.093 49.8031C110.651 49.8031 110.21 49.8031 109.756 49.8031C109.645 49.5471 109.535 49.291 109.421 49.0272C108.891 47.9698 108.891 47.9698 107.917 47.0872C107.641 46.8129 107.365 46.5385 107.081 46.2558C107.081 45.9632 107.081 45.6705 107.081 45.369C106.824 45.2593 106.566 45.1495 106.301 45.0364C105.152 44.401 104.38 43.691 103.515 42.7085C103.515 42.4159 103.515 42.1232 103.515 41.8217C103.258 41.712 103.001 41.6022 102.735 41.4891C101.586 40.8537 100.814 40.1437 99.9496 39.1612C99.9496 38.8686 99.9496 38.5759 99.9496 38.2744C99.6095 38.2195 99.2694 38.1646 98.9189 38.1081C97.721 37.831 97.721 37.831 96.3839 36.9441C93.1014 35.9546 89.7363 36.298 86.5814 37.4967C85.6865 37.831 85.6865 37.831 84.7097 38.0458C83.8242 38.1971 83.8242 38.1971 83.43 39.0781C83.2921 39.3982 83.1542 39.7183 83.0122 40.048C82.3436 41.0457 82.3436 41.0457 81.675 41.8217C81.3808 41.8217 81.0866 41.8217 80.7835 41.8217C80.3868 43.8485 80.2779 45.7718 80.2821 47.8355C80.2809 48.4031 80.2798 48.9707 80.2786 49.5554C80.3569 52.2649 80.3569 52.2649 81.7864 54.459C82.1909 54.8248 82.5954 55.1906 83.0122 55.5675C83.5637 56.1574 83.5637 56.1574 84.1265 56.7592C85.2274 57.7722 86.0526 58.2284 87.4694 58.6714C87.4694 58.9641 87.4694 59.2567 87.4694 59.5582C88.3519 59.5582 89.2345 59.5582 90.1437 59.5582C90.1437 59.8509 90.1437 60.1435 90.1437 60.4451C91.4675 60.4451 92.7913 60.4451 94.1552 60.4451C94.1552 60.1524 94.1552 59.8597 94.1552 59.5582C94.4511 59.4559 94.747 59.3536 95.0519 59.2482C97.4941 58.3509 99.0936 57.5474 100.841 55.5675C101.282 55.2108 101.724 54.8542 102.178 54.4867C103.569 53.3048 104.613 52.1124 105.744 50.69C107.242 50.8003 107.578 51.1925 108.586 52.3528C108.864 52.712 108.864 52.712 109.148 53.0785C109.77 53.8107 110.413 54.3482 111.176 54.9301C112.435 56.0151 112.871 56.6613 113.321 58.228C107.892 64.6682 107.892 64.6682 104.964 65.7937C104.468 65.9995 104.468 65.9995 103.961 66.2094C103.741 66.8679 103.741 66.8679 103.515 67.5397C100.847 68.8925 98.0129 69.534 95.0467 69.7567C95.0467 70.0494 95.0467 70.342 95.0467 70.6436C92.3991 70.6436 89.7515 70.6436 87.0237 70.6436C87.0237 70.3509 87.0237 70.0583 87.0237 69.7567C86.7755 69.7133 86.5272 69.6699 86.2715 69.6251C82.9829 68.9841 80.056 68.1816 78.1092 65.3226C77.7415 65.1123 77.3737 64.9019 76.9949 64.6852C75.6928 63.8756 75.2878 63.088 74.5434 61.7753C74.1021 61.4826 73.6609 61.19 73.2062 60.8885C72.8998 59.7245 72.8998 59.7245 72.7605 58.6714C72.4663 58.6714 72.1722 58.6714 71.8691 58.6714C71.3374 56.9524 70.9776 55.6047 70.9776 53.7939C70.5363 53.6475 70.0951 53.5012 69.6404 53.3504C69.6275 51.6137 69.6196 49.8771 69.6126 48.1403C69.6089 47.6476 69.6051 47.1549 69.6013 46.6473C69.5998 46.1729 69.5984 45.6984 69.5969 45.2097C69.5946 44.7731 69.5922 44.3366 69.5898 43.8868C69.6353 42.8288 69.7817 41.9451 70.0862 40.9349C70.3803 40.9349 70.6745 40.9349 70.9776 40.9349C71.1431 40.1529 71.1431 40.1529 71.3119 39.3552C72.0788 36.3409 73.3604 34.4073 75.8806 32.51C76.0277 32.071 76.1748 31.6321 76.3263 31.1798C77.1342 30.5961 77.1342 30.5961 78.1092 30.0435C79.4843 29.3113 79.4843 29.3113 80.3378 28.0759C81.3755 27.6169 81.3755 27.6169 82.6779 27.1613C83.103 27.0099 83.5282 26.8584 83.9663 26.7023C89.4741 24.9732 97.2572 24.8122 102.178 28.0759Z" fill="white"/>
<path d="M16.6547 27.5771C16.9736 27.5753 17.2925 27.5736 17.621 27.5719C19.0332 27.5745 20.1528 27.6285 21.5019 28.0759C21.5019 28.3685 21.5019 28.6612 21.5019 28.9627C21.9524 29.0725 22.4029 29.1822 22.867 29.2953C25.2196 29.966 27.2447 30.881 28.6335 32.9534C29.7367 32.734 29.7367 32.734 30.8621 32.51C31.0092 32.0711 31.1563 31.6321 31.3079 31.1798C32.1819 30.5649 32.1819 30.5649 33.2579 29.9881C33.6107 29.7943 33.9635 29.6006 34.3269 29.4009C35.3194 28.9627 35.3194 28.9627 36.6565 28.9627C36.6565 28.6701 36.6565 28.3774 36.6565 28.0759C38.4187 27.4992 40.2005 27.5672 42.0331 27.5771C42.354 27.5753 42.6749 27.5736 43.0055 27.5719C44.4242 27.5745 45.5529 27.6265 46.9082 28.0759C46.9082 28.3685 46.9082 28.6612 46.9082 28.9627C47.3678 29.0725 47.8275 29.1822 48.3011 29.2953C51.5535 30.2458 53.6987 32.2873 55.3769 35.1705C55.3769 35.6095 55.3769 36.0485 55.3769 36.5007C55.6711 36.5007 55.9653 36.5007 56.2684 36.5007C57.8089 40.1367 57.7789 43.6002 57.7361 47.477C57.7336 48.1473 57.7317 48.8176 57.7304 49.4879C57.7253 51.2396 57.7122 52.9912 57.6974 54.7429C57.6812 56.8513 57.6751 58.9598 57.6673 61.0682C57.6544 64.2601 57.6288 67.4517 57.6055 70.6436C52.4574 70.6436 47.3093 70.6436 42.0052 70.6436C42.0052 62.0103 42.0052 53.3771 42.0052 44.4822C41.711 44.4822 41.4169 44.4822 41.1138 44.4822C41.1138 44.1895 41.1138 43.8969 41.1138 43.5954C39.9371 43.5954 38.7603 43.5954 37.548 43.5954C37.0839 44.9805 37.0329 45.9832 37.0107 47.4374C37.0019 47.9522 36.993 48.467 36.9838 48.9974C36.9764 49.5531 36.9689 50.1088 36.9612 50.6813C36.9473 51.5347 36.9473 51.5347 36.9332 52.4054C36.9086 53.9165 36.8865 55.4277 36.865 56.9388C36.8426 58.4814 36.8178 60.024 36.7932 61.5666C36.7451 64.5922 36.7009 67.6179 36.6565 70.6436C31.5084 70.6436 26.3603 70.6436 21.0562 70.6436C21.0395 68.7653 21.0229 66.8871 21.0057 64.952C20.9887 63.4565 20.9704 61.9612 20.9512 60.4658C20.9313 58.886 20.9137 57.3063 20.9018 55.7264C20.888 53.9147 20.8636 52.1032 20.8386 50.2916C20.8357 49.7239 20.8329 49.1563 20.8299 48.5714C20.8211 48.0477 20.8123 47.524 20.8032 46.9844C20.7958 46.2902 20.7958 46.2902 20.7882 45.582C20.7296 45.2191 20.6709 44.8561 20.6105 44.4822C19.377 43.462 19.377 43.462 18.1033 43.7062C17.754 43.816 17.4046 43.9257 17.0447 44.0388C16.8241 44.4778 16.8241 44.4778 16.599 44.9256C16.3048 44.9256 16.0106 44.9256 15.7075 44.9256C15.7075 53.4125 15.7075 61.8995 15.7075 70.6436C10.5594 70.6436 5.41131 70.6436 0.107201 70.6436C0.0714457 63.3538 0.0714457 63.3538 0.0636729 60.2346C0.0583542 58.1104 0.0520776 55.9862 0.0399503 53.862C0.0302293 52.1484 0.0249264 50.4349 0.0226225 48.7214C0.0209817 48.0692 0.0177776 47.4171 0.0129478 46.765C0.00643005 45.8481 0.00558739 44.9313 0.00599866 44.0144C0.0040191 43.4935 0.00203954 42.9727 0 42.436C0.119217 40.7666 0.485239 39.4195 0.998648 37.831C1.29283 37.831 1.587 37.831 1.89009 37.831C2.00041 37.3646 2.11073 36.8982 2.22439 36.4176C2.68859 34.8063 3.35859 33.7096 4.56444 32.51C5.0057 32.51 5.44697 32.51 5.90161 32.51C5.98434 32.254 6.06708 31.9979 6.15233 31.7341C7.11901 30.2288 8.31295 29.7587 9.91312 28.9627C10.2073 28.9627 10.5015 28.9627 10.8046 28.9627C10.8046 28.6701 10.8046 28.3774 10.8046 28.0759C12.7547 27.5966 14.6584 27.5662 16.6547 27.5771Z" fill="white"/>
<path d="M200.237 13C205.533 13 210.828 13 216.284 13C216.314 18.0535 216.338 23.107 216.353 28.1606C216.36 30.5077 216.369 32.8546 216.384 35.2016C216.399 37.4701 216.407 39.7384 216.41 42.0069C216.413 42.8688 216.418 43.7308 216.425 44.5927C216.462 49.1839 216.449 53.3907 214.946 57.7848C214.652 57.7848 214.358 57.7848 214.055 57.7848C214.014 58.3335 214.014 58.3335 213.971 58.8933C213.206 62.1713 211.319 64.2014 208.706 66.2096C208.559 66.5023 208.412 66.7949 208.26 67.0964C206.163 68.5063 204.132 69.5612 201.575 69.7569C201.575 70.0496 201.575 70.3422 201.575 70.6437C199.968 71.0096 198.482 71.1441 196.835 71.146C196.366 71.1466 195.897 71.1472 195.413 71.1478C194.927 71.1461 194.442 71.1443 193.942 71.1426C193.453 71.1443 192.964 71.146 192.46 71.1478C191.992 71.1472 191.523 71.1466 191.041 71.146C190.614 71.1455 190.187 71.145 189.747 71.1445C188.649 71.0872 188.649 71.0872 187.311 70.6437C187.311 70.3511 187.311 70.0584 187.311 69.7569C186.944 69.7203 186.576 69.6838 186.197 69.6461C183.451 69.0606 181.331 68.1111 179.734 65.7662C179.366 65.5558 178.999 65.3455 178.62 65.1288C177.312 64.3159 176.903 63.5471 176.168 62.2189C175.96 62.0297 175.751 61.8405 175.536 61.6456C172.612 58.506 172.392 53.7355 172.38 49.6925C172.377 49.289 172.374 48.8856 172.372 48.4699C172.444 44.5462 173.516 40.8909 175.277 37.3877C175.718 37.0951 176.159 36.8024 176.614 36.5009C176.816 36.1534 177.019 35.8059 177.227 35.4478C178.048 34.1285 178.903 33.3895 180.18 32.5102C180.474 32.5102 180.768 32.5102 181.071 32.5102C181.233 32.1021 181.233 32.1021 181.397 31.6857C182.392 30.016 184.183 29.5529 185.974 28.9629C187.339 28.852 187.339 28.852 188.203 28.9629C188.203 28.6702 188.203 28.3776 188.203 28.0761C189.273 27.5438 189.938 27.5818 191.131 27.5893C191.491 27.5904 191.851 27.5916 192.222 27.5927C192.908 27.5988 192.908 27.5988 193.607 27.6049C195.786 27.6186 195.786 27.6186 198.009 27.6326C198.009 33.3394 198.009 39.0461 198.009 44.9258C197.42 44.7794 196.832 44.6331 196.226 44.4823C192.733 44.2089 192.733 44.2089 189.54 45.3692C188.14 47.5576 188.393 50.4054 188.927 52.8518C189.824 54.2299 190.666 54.5821 192.214 55.1243C194.334 55.3553 196.369 55.0958 198.455 54.6809C199.499 51.9915 199.99 49.6541 199.984 46.7773C199.989 46.4091 199.994 46.0409 199.998 45.6615C200.012 44.4595 200.016 43.2577 200.02 42.0557C200.027 41.2164 200.035 40.3771 200.044 39.5377C200.065 37.34 200.079 35.1422 200.09 32.9444C200.104 30.6972 200.124 28.45 200.144 26.2028C200.183 21.8019 200.212 17.401 200.237 13Z" fill="white"/>
<path d="M288.854 27.5735C289.268 27.5729 289.682 27.5724 290.109 27.5718C290.756 27.5743 290.756 27.5743 291.416 27.577C292.065 27.5744 292.065 27.5744 292.728 27.5718C293.141 27.5723 293.554 27.5729 293.98 27.5735C294.359 27.574 294.738 27.5745 295.129 27.575C296.068 27.6324 296.068 27.6324 296.959 28.0758C296.959 28.3685 296.959 28.6611 296.959 28.9626C297.401 28.9901 297.842 29.0175 298.296 29.0458C301.377 29.4862 303.894 31.5511 305.874 33.8402C307.345 35.8392 308.357 37.5185 308.548 40.048C308.842 40.048 309.136 40.048 309.44 40.048C310.27 43.7378 310.45 47.255 310.418 51.0277C310.417 51.5916 310.416 52.1555 310.414 52.7365C310.41 54.2185 310.402 55.7004 310.392 57.1823C310.383 58.7014 310.379 60.2206 310.375 61.7397C310.365 64.7077 310.348 67.6755 310.331 70.6435C305.036 70.6435 299.741 70.6435 294.285 70.6435C294.258 68.8024 294.231 66.9613 294.203 65.0645C294.18 63.5969 294.157 62.1294 294.134 60.6619C294.109 59.1126 294.085 57.5632 294.063 56.0138C294.038 54.2362 294.009 52.4587 293.98 50.6812C293.973 50.1256 293.965 49.5699 293.958 48.9973C293.944 48.2252 293.944 48.2252 293.931 47.4374C293.924 46.9834 293.917 46.5295 293.91 46.0618C293.885 44.8723 293.885 44.8723 293.393 43.5953C291.606 43.5161 291.606 43.5161 289.828 43.5953C288.645 44.7721 288.815 45.3402 288.794 46.9843C288.785 47.508 288.776 48.0317 288.767 48.5713C288.76 49.4228 288.76 49.4228 288.752 50.2915C288.743 50.8709 288.734 51.4504 288.726 52.0473C288.703 53.5883 288.685 55.1294 288.668 56.6704C288.651 58.2427 288.628 59.815 288.605 61.3872C288.562 64.4726 288.526 67.558 288.491 70.6435C283.195 70.6435 277.9 70.6435 272.444 70.6435C272.416 67.1463 272.39 63.6496 272.375 60.1524C272.368 58.5234 272.359 56.8945 272.344 55.2655C272.329 53.6928 272.321 52.1203 272.318 50.5475C272.314 49.6637 272.304 48.7798 272.293 47.896C272.292 44.4777 272.669 41.515 273.782 38.2743C274.076 38.2743 274.37 38.2743 274.673 38.2743C274.852 37.7942 274.852 37.7942 275.035 37.3044C276.743 33.2809 279.656 30.8131 283.588 28.9626C284.176 28.9626 284.764 28.9626 285.37 28.9626C285.37 28.67 285.37 28.3773 285.37 28.0758C286.667 27.6459 287.505 27.5753 288.854 27.5735Z" fill="white"/>
<path d="M241.632 27.5735C242.236 27.5727 242.236 27.5727 242.853 27.5718C243.269 27.5735 243.685 27.5752 244.113 27.577C244.527 27.5753 244.941 27.5735 245.367 27.5718C247.46 27.5747 249.437 27.6451 251.495 28.0758C251.495 28.3685 251.495 28.6611 251.495 28.9626C251.759 29.0432 252.023 29.1238 252.294 29.2069C256.088 30.4075 256.088 30.4075 257.735 31.6231C257.735 31.9158 257.735 32.2084 257.735 32.5099C257.993 32.6288 258.25 32.7477 258.515 32.8702C260.272 33.7927 261.285 34.5991 262.248 36.3344C262.908 37.8478 262.908 37.8478 263.975 38.2743C264.339 39.2252 264.339 39.2252 264.672 40.4082C264.783 40.7952 264.894 41.1822 265.008 41.5809C266.065 45.4938 265.758 46.9609 265.758 52.0201C257.815 52.0201 249.873 52.0201 241.689 52.0201C241.114 50.8756 241.184 50.0273 241.188 48.75C241.186 48.1138 241.186 48.1138 241.184 47.4648C241.243 46.2558 241.243 46.2558 241.689 44.4821C244.484 44.4821 247.279 44.4821 250.158 44.4821C250.158 44.0431 250.158 43.6041 250.158 43.1519C249.864 43.1519 249.57 43.1519 249.266 43.1519C248.812 42.4179 248.367 41.6786 247.929 40.9348C246.391 40.1695 244.712 40.3316 243.026 40.4914C241.104 41.2814 240.466 42.2765 239.461 44.0387C239.166 44.0387 238.872 44.0387 238.569 44.0387C238.569 47.2579 238.569 50.4771 238.569 53.7938C238.863 53.7938 239.157 53.7938 239.461 53.7938C239.896 54.5877 240.331 55.3815 240.766 56.1754C241.205 56.9714 241.205 56.9714 242.135 57.3411C242.942 57.3838 243.75 57.3987 244.559 57.3965C244.99 57.3977 245.422 57.3988 245.866 57.4C247.087 57.3908 247.087 57.3908 248.375 56.8977C248.596 56.2392 248.596 56.2392 248.821 55.5674C250.292 56.0555 250.439 56.2529 251.244 57.4797C251.895 58.4337 252.481 59.2091 253.306 60.0293C254.169 60.8884 254.169 60.8884 255.033 62.1909C255.916 63.5939 255.916 63.5939 257.178 64.7406C258.181 65.7659 258.181 65.7659 258.181 67.0962C253.557 69.5597 253.557 69.5597 251.049 69.7567C251.049 70.0493 251.049 70.342 251.049 70.6435C249.558 70.9758 248.177 71.1437 246.65 71.1458C246.045 71.1467 246.045 71.1467 245.428 71.1475C244.805 71.145 244.805 71.145 244.169 71.1423C243.755 71.144 243.341 71.1458 242.914 71.1475C240.821 71.1446 238.844 71.0742 236.786 70.6435C236.786 70.3508 236.786 70.0582 236.786 69.7567C236.327 69.6378 235.867 69.5189 235.393 69.3964C233.818 68.9442 232.407 68.3777 230.992 67.5396C230.845 67.1006 230.698 66.6616 230.546 66.2094C229.722 65.7437 229.722 65.7437 228.763 65.3225C227.245 64.3615 226.464 63.3679 225.643 61.7752C225.643 61.4826 225.643 61.1899 225.643 60.8884C225.349 60.8884 225.055 60.8884 224.752 60.8884C221.66 54.6482 221.294 46.9726 223.526 40.3805C224.269 38.547 225.063 37.3802 226.535 36.0573C228.145 34.4957 228.145 34.4957 229.515 32.7317C231.526 30.5688 234.339 29.4363 237.232 28.9626C237.232 28.67 237.232 28.3773 237.232 28.0758C238.724 27.7435 240.104 27.5756 241.632 27.5735Z" fill="white"/>
</g>
<defs>
<clipPath id="clip0_227_639">
<rect width="310.422" height="84.1478" fill="white"/>
</clipPath>
</defs>
</svg>
