<svg width="37" height="47" viewBox="0 0 37 47" fill="none" xmlns="http://www.w3.org/2000/svg">
<path d="M18.5 0C13.5953 0.00577508 8.8931 1.95297 5.42493 5.41444C1.95676 8.87592 0.00580592 13.569 1.96821e-05 18.4643C-0.00585472 22.4647 1.30339 26.3566 3.72693 29.5429C3.72693 29.5429 4.23147 30.2059 4.31388 30.3016L18.5 47L32.6928 30.2932C32.7668 30.2042 33.2731 29.5429 33.2731 29.5429L33.2748 29.5378C35.6971 26.3529 37.0057 22.4629 37 18.4643C36.9942 13.569 35.0432 8.87592 31.5751 5.41444C28.1069 1.95297 23.4047 0.00577508 18.5 0ZM18.5 25.1786C17.1695 25.1786 15.8688 24.7848 14.7625 24.047C13.6562 23.3092 12.794 22.2606 12.2848 21.0337C11.7756 19.8069 11.6424 18.4568 11.902 17.1544C12.1616 15.8519 12.8023 14.6556 13.7431 13.7166C14.6839 12.7776 15.8826 12.1381 17.1876 11.879C18.4925 11.6199 19.8452 11.7529 21.0744 12.2611C22.3037 12.7693 23.3543 13.6299 24.0935 14.734C24.8327 15.8382 25.2273 17.1363 25.2273 18.4643C25.225 20.2443 24.5156 21.9509 23.2544 23.2095C21.9933 24.4682 20.2835 25.1764 18.5 25.1786Z" fill="white"/>
</svg>
