<svg width="50" height="50" viewBox="0 0 50 50" fill="none" xmlns="http://www.w3.org/2000/svg">
<path fill-rule="evenodd" clip-rule="evenodd" d="M24.9998 2.60413C37.3685 2.60413 47.3956 12.6312 47.3956 25C47.3956 37.3687 37.3685 47.3958 24.9998 47.3958C21.1248 47.3958 17.479 46.4104 14.2977 44.677L4.4227 46.3333C4.17931 46.3739 3.92975 46.3563 3.69447 46.2819C3.45919 46.2075 3.24487 46.0785 3.06907 45.9053C2.89327 45.7321 2.76098 45.5198 2.68303 45.2857C2.60508 45.0515 2.58369 44.8023 2.62062 44.5583L4.28729 33.5375C3.17077 30.8298 2.59877 27.9287 2.60395 25C2.60395 12.6312 12.631 2.60413 24.9998 2.60413ZM16.5477 13.9583C15.0165 13.9583 13.7477 15.25 13.9852 16.8458C14.4352 19.8375 15.7644 25.35 19.7185 29.3333C23.8519 33.4979 29.7665 35.2791 32.9685 35.9812C34.6269 36.3458 36.0415 35.0333 36.0415 33.4145V29.6145C36.0415 29.4883 36.0033 29.365 35.9319 29.2609C35.8605 29.1567 35.7592 29.0767 35.6415 29.0312L31.5581 27.4625C31.4479 27.4203 31.328 27.4102 31.2123 27.4333L27.0935 28.2375C24.4373 26.8625 22.829 25.3208 21.8644 22.9979L22.6394 18.8C22.6601 18.6883 22.65 18.573 22.6102 18.4666L21.079 14.3645C21.0345 14.2456 20.9549 14.143 20.8507 14.0704C20.7465 13.9978 20.6226 13.9587 20.4956 13.9583H16.5477Z" fill="white"/>
</svg>
