<svg width="60" height="60" viewBox="0 0 60 60" fill="none" xmlns="http://www.w3.org/2000/svg">
<path d="M30 5C30.9383 5 31.8633 5.05083 32.775 5.1525C33.1013 5.18861 33.4174 5.28865 33.705 5.4469C33.9927 5.60514 34.2464 5.8185 34.4516 6.07479C34.6568 6.33108 34.8096 6.62528 34.9011 6.9406C34.9926 7.25591 35.0211 7.58616 34.985 7.9125C34.9489 8.23883 34.8489 8.55486 34.6906 8.84254C34.5324 9.13021 34.319 9.3839 34.0627 9.58911C33.8064 9.79433 33.5122 9.94706 33.1969 10.0386C32.8816 10.1301 32.5513 10.1586 32.225 10.1225C28.1051 9.66161 23.9438 10.4923 20.3167 12.4998C16.6896 14.5073 13.7759 17.5922 11.9787 21.328C10.1814 25.0638 9.58951 29.2657 10.2847 33.3526C10.98 37.4394 12.928 41.2093 15.8593 44.1406C18.7907 47.072 22.5606 49.0201 26.6474 49.7153C30.7343 50.4105 34.9362 49.8186 38.672 48.0213C42.4078 46.2241 45.4927 43.3104 47.5002 39.6833C49.5076 36.0562 50.3384 31.8949 49.8775 27.775C49.8414 27.4487 49.8699 27.1184 49.9614 26.8031C50.0529 26.4878 50.2057 26.1936 50.4109 25.9373C50.8253 25.4197 51.4284 25.0879 52.0875 25.015C52.7466 24.9421 53.4076 25.1339 53.9252 25.5484C54.1815 25.7536 54.3949 26.0073 54.5531 26.295C54.7113 26.5826 54.8114 26.8987 54.8475 27.225C54.9475 28.1367 54.9983 29.0617 55 30C55 43.8075 43.8075 55 30 55C16.1925 55 5 43.8075 5 30C5 16.1925 16.1925 5 30 5ZM29.92 19.6925C30.0848 20.3343 29.988 21.0153 29.6509 21.5858C29.3139 22.1563 28.7641 22.5696 28.1225 22.735C26.3597 23.1968 24.8251 24.2842 23.8051 25.7943C22.7851 27.3044 22.3494 29.134 22.5793 30.9417C22.8091 32.7495 23.6889 34.4118 25.0543 35.6186C26.4198 36.8254 28.1777 37.4941 30 37.5C31.6633 37.5007 33.2796 36.9485 34.5947 35.9302C35.9098 34.912 36.8492 33.4854 37.265 31.875C37.4422 31.2459 37.8587 30.7112 38.4254 30.3854C38.992 30.0597 39.6637 29.9688 40.2965 30.1322C40.9293 30.2957 41.473 30.7004 41.811 31.2598C42.1491 31.8192 42.2546 32.4888 42.105 33.125C41.3381 36.0648 39.5271 38.6249 37.0104 40.3269C34.4937 42.029 31.4434 42.7566 28.4294 42.3738C25.4154 41.991 22.6438 40.524 20.6325 38.2468C18.6212 35.9697 17.5077 33.0382 17.5 30C17.4996 27.2285 18.4203 24.5354 20.1173 22.3442C21.8143 20.153 24.1915 18.5879 26.875 17.895C27.193 17.813 27.524 17.7945 27.8491 17.8405C28.1742 17.8865 28.4871 17.9961 28.7698 18.163C29.0526 18.3299 29.2997 18.5509 29.4971 18.8133C29.6944 19.0758 29.8381 19.3745 29.92 19.6925ZM46.26 5.3175C46.7163 5.5067 47.1064 5.82684 47.3809 6.23752C47.6554 6.6482 47.8021 7.13101 47.8025 7.625V12.2H52.375C52.8694 12.2001 53.3526 12.3468 53.7636 12.6215C54.1747 12.8962 54.495 13.2866 54.6842 13.7434C54.8734 14.2001 54.9229 14.7027 54.8265 15.1876C54.73 15.6725 54.492 16.1179 54.1425 16.4675L45.3 25.3C44.8313 25.7689 44.1955 26.0324 43.5325 26.0325H37.5L32.93 30.605C32.4609 31.0741 31.8247 31.3376 31.1613 31.3376C30.4978 31.3376 29.8616 31.0741 29.3925 30.605C28.9234 30.1359 28.6599 29.4997 28.6599 28.8363C28.6599 28.1728 28.9234 27.5366 29.3925 27.0675L33.965 22.5V16.465C33.9651 15.802 34.2286 15.1662 34.6975 14.6975L43.535 5.8575C43.8846 5.50767 44.3301 5.2694 44.8152 5.17283C45.3003 5.07626 45.8031 5.12574 46.26 5.315M42.8025 13.6575L38.965 17.5V21.035H42.5L46.34 17.1975H45.3025C44.6395 17.1975 44.0036 16.9341 43.5347 16.4653C43.0659 15.9964 42.8025 15.3605 42.8025 14.6975V13.6575Z" fill="white"/>
</svg>
