<svg width="54" height="54" viewBox="0 0 54 54" fill="none" xmlns="http://www.w3.org/2000/svg">
<path d="M27 3.375L6.75 10.125V30.375C6.75 41.56 15.815 50.625 27 50.625C38.185 50.625 47.25 41.56 47.25 30.375V10.125L27 3.375ZM43.4531 30.375C43.4531 39.4611 36.0861 46.8281 27 46.8281C17.9139 46.8281 10.5469 39.4611 10.5469 30.375V12.9727L27 7.17188L43.4531 12.9727V30.375Z" fill="white"/>
<path d="M19.9547 25.0541C19.7787 24.8773 19.5696 24.7371 19.3392 24.6414C19.1089 24.5457 18.862 24.4964 18.6126 24.4964C18.3632 24.4964 18.1162 24.5457 17.8859 24.6414C17.6556 24.7371 17.4464 24.8773 17.2705 25.0541C17.0937 25.2301 16.9535 25.4392 16.8577 25.6695C16.762 25.8998 16.7128 26.1468 16.7128 26.3962C16.7128 26.6456 16.762 26.8926 16.8577 27.1229C16.9535 27.3532 17.0937 27.5623 17.2705 27.7383L24.0943 34.5621L24.205 34.6729C24.3715 34.8396 24.5692 34.9719 24.7868 35.0622C25.0044 35.1524 25.2377 35.1989 25.4733 35.1989C25.7089 35.1989 25.9422 35.1524 26.1598 35.0622C26.3774 34.9719 26.5751 34.8396 26.7416 34.6729L38.5277 22.8867C38.6944 22.7203 38.8267 22.5226 38.917 22.305C39.0073 22.0873 39.0537 21.8541 39.0537 21.6185C39.0537 21.3829 39.0073 21.1496 38.917 20.9319C38.8267 20.7143 38.6944 20.5166 38.5277 20.3502L38.38 20.2025C38.2136 20.0358 38.0159 19.9035 37.7983 19.8132C37.5807 19.723 37.3474 19.6765 37.1118 19.6765C36.8762 19.6765 36.6429 19.723 36.4253 19.8132C36.2076 19.9035 36.01 20.0358 35.8435 20.2025L25.4707 30.5701L19.9547 25.0541Z" fill="white"/>
</svg>
