<svg width="502" height="500" viewBox="0 0 502 500" fill="none" xmlns="http://www.w3.org/2000/svg">
<path d="M403.867 49.0638C453.976 87.9524 488.988 144.558 499.543 207.361C508.008 277.34 495.256 344.858 451.725 401.562C448.045 405.996 444.336 410.405 440.597 414.789C438.449 417.569 436.301 420.349 434.088 423.214C399.887 464.54 342.151 492.59 289.425 498.773C216.507 504.166 148.528 492.781 91.2615 444.459C89.0313 442.428 86.8011 440.397 84.5034 438.305C81.9614 436.031 79.4194 433.758 76.8005 431.415C29.0769 386.41 3.76062 324.513 0.0992035 259.523C-1.728 189.176 21.6982 126.822 69.3485 75.3105C158.631 -17.2223 300.688 -22.7013 403.867 49.0638ZM87.3247 105.11C47.3474 152.557 30.0556 208.638 33.4715 269.967C39.0499 331.615 69.9107 380.217 114.948 421.075C158.163 455.737 212.544 471.238 267.405 467.817C329.669 460.504 384.236 433.933 423.8 384.555C460.868 332.653 472.159 275.879 467.472 213.227C464.595 197.81 460.135 183.978 454.034 169.555C452.209 165.131 452.209 165.131 450.347 160.619C440.295 138.572 426.251 120.53 410.362 102.368C408.574 100.259 406.785 98.1497 404.943 95.9769C369.97 57.7068 317.018 34.8385 265.818 31.0728C196.696 29.1458 134.919 55.1802 87.3247 105.11Z" fill="#8D2029"/>
<path d="M135.588 232.449C137.957 232.463 140.327 232.477 142.767 232.491C145.203 232.484 147.638 232.478 150.147 232.471C155.298 232.467 160.448 232.479 165.599 232.507C173.496 232.543 181.39 232.507 189.287 232.464C194.287 232.469 199.286 232.477 204.286 232.491C206.655 232.477 209.024 232.463 211.465 232.449C228.184 232.611 228.184 232.611 235.675 240.102C236.095 250.6 236.095 250.6 235.675 260.258C224.87 266.595 216.479 267.953 204.024 268.368C200.581 268.498 197.138 268.628 193.591 268.761C188.232 268.917 188.232 268.917 182.765 269.076C179.14 269.206 175.516 269.336 171.781 269.47C162.846 269.786 153.91 270.074 144.972 270.336C145.266 275.169 145.629 279.998 146.022 284.823C146.314 288.857 146.314 288.857 146.612 292.972C148.709 302.238 150.912 304.899 158.41 310.648C166.804 312.155 166.804 312.155 176.355 311.899C180.02 311.92 183.686 311.941 187.463 311.963C191.421 311.932 195.379 311.901 199.457 311.869C205.551 311.871 205.551 311.871 211.769 311.874C220.365 311.866 228.961 311.833 237.557 311.778C250.739 311.699 263.92 311.709 277.103 311.731C285.445 311.712 293.786 311.688 302.128 311.659C306.086 311.662 310.043 311.665 314.121 311.668C317.787 311.636 321.453 311.604 325.23 311.571C328.459 311.556 331.689 311.54 335.016 311.524C344.044 311.192 344.044 311.192 353.253 303.93C357.298 294.907 356.774 291.026 353.883 281.464C350.624 273.233 350.624 273.233 343.175 270.336C337.941 269.905 332.691 269.657 327.441 269.509C324.325 269.399 321.21 269.288 317.999 269.175C311.421 268.97 304.842 268.777 298.263 268.597C295.143 268.483 292.023 268.368 288.808 268.25C285.948 268.165 283.088 268.081 280.142 267.995C272.628 266.977 272.628 266.977 262.55 260.258C261.92 248.08 261.92 248.08 262.55 236.742C275.754 230.141 292.122 232.468 306.642 232.333C310.072 232.236 313.501 232.138 317.035 232.038C338.72 231.857 355.457 234.014 373.409 246.82C390.009 264.698 391.379 276.746 391.151 300.623C389.472 318.436 380.965 327.018 368.16 338.573C355.518 347.325 345.877 348.043 330.875 348.143C325.022 348.191 325.022 348.191 319.05 348.241C312.719 348.262 312.719 348.262 306.261 348.284C299.755 348.313 299.755 348.313 293.118 348.342C283.932 348.377 274.746 348.397 265.559 348.409C253.823 348.427 242.088 348.508 230.351 348.603C219.122 348.681 207.892 348.688 196.662 348.704C192.462 348.745 188.262 348.787 183.935 348.83C161.171 348.771 143.632 348.558 126.01 332.484C110.458 312.511 110.766 297.795 110.748 273.485C110.707 270.383 110.666 267.28 110.624 264.083C110.617 261.119 110.611 258.155 110.604 255.101C110.59 252.385 110.577 249.67 110.562 246.872C112.402 231.608 122.61 232.575 135.588 232.449Z" fill="#8D2029"/>
<path d="M135.7 172.042C139.371 172.07 139.371 172.07 143.115 172.099C145.694 172.092 148.273 172.086 150.929 172.079C159.477 172.067 168.024 172.103 176.571 172.141C182.496 172.145 188.42 172.146 194.344 172.145C206.77 172.15 219.196 172.178 231.622 172.223C247.573 172.28 263.524 172.293 279.476 172.291C291.712 172.292 303.949 172.31 316.185 172.334C322.068 172.345 327.95 172.352 333.833 172.354C342.045 172.361 350.257 172.391 358.469 172.427C360.916 172.425 363.363 172.424 365.884 172.422C382.718 172.53 382.718 172.53 390.206 176.274C390.206 184.034 390.206 191.794 390.206 199.79C374.788 205.756 361.956 207.357 345.463 207.378C343.09 207.39 340.717 207.401 338.271 207.414C330.484 207.443 322.697 207.424 314.909 207.401C309.472 207.405 304.035 207.412 298.597 207.42C287.229 207.43 275.861 207.416 264.492 207.384C249.927 207.346 235.364 207.368 220.799 207.408C209.582 207.433 198.366 207.425 187.15 207.408C181.779 207.403 176.408 207.409 171.037 207.424C163.535 207.441 156.035 207.415 148.533 207.378C144.267 207.372 140.001 207.367 135.606 207.362C125.494 206.562 119.847 205.135 111.378 199.79C110.958 190.132 110.958 190.132 111.378 179.634C119.678 171.334 124.374 172.113 135.7 172.042Z" fill="#8D2029"/>
</svg>
