<svg width="56" height="56" viewBox="0 0 56 56" fill="none" xmlns="http://www.w3.org/2000/svg">
<path d="M25.6664 13.7247V44.8933C25.6657 45.8604 25.3238 46.7963 24.7008 47.5359C24.0778 48.2756 23.2137 48.7717 22.2608 48.9368C21.3079 49.1019 20.3273 48.9254 19.4918 48.4384C18.6563 47.9514 18.0194 47.1852 17.6934 46.2747L12.6838 31.9247M12.6838 31.9247C10.7033 31.0826 9.07453 29.5845 8.07316 27.6796C7.0718 25.7746 6.75932 23.5823 7.18861 21.4734C7.6179 19.3646 8.76258 17.4689 10.4289 16.107C12.0953 14.7451 14.181 14.0008 16.3331 14H20.6078C30.1744 14 38.3994 11.1207 41.9998 7V39.6667C38.3994 35.546 30.1768 32.6667 20.6078 32.6667H16.3331C15.0793 32.6677 13.8382 32.4138 12.6838 31.9247ZM41.9998 30.3333C43.8563 30.3333 45.6368 29.5958 46.9495 28.2831C48.2623 26.9703 48.9998 25.1898 48.9998 23.3333C48.9998 21.4768 48.2623 19.6963 46.9495 18.3836C45.6368 17.0708 43.8563 16.3333 41.9998 16.3333" stroke="white" stroke-width="2" stroke-linecap="round" stroke-linejoin="round"/>
</svg>
